<?xml version="1.0" standalone="no"?>
<!DOCTYPE svg PUBLIC "-//W3C//DTD SVG 20010904//EN"
 "http://www.w3.org/TR/2001/REC-SVG-20010904/DTD/svg10.dtd">
<svg version="1.0" xmlns="http://www.w3.org/2000/svg"
 width="400.000000pt" height="409.000000pt" viewBox="0 0 400.000000 409.000000"
 preserveAspectRatio="xMidYMid meet">

<g transform="translate(0.000000,409.000000) scale(0.100000,-0.100000)"
fill="#000000" stroke="none">
<path d="M2037 3974 c-3 -4 -48 -6 -99 -5 -151 3 -402 -40 -543 -93 -60 -22
-27 -19 41 4 32 11 64 18 71 16 7 -3 13 -2 13 2 0 11 171 44 260 49 41 3 110
7 153 10 75 5 78 4 68 -13 -16 -28 -37 -54 -44 -54 -4 0 -4 8 0 18 4 11 3 14
-4 7 -6 -5 -13 -24 -16 -41 -5 -28 -3 -32 21 -38 15 -3 38 -8 52 -11 17 -4 13
-1 -10 10 -30 14 -33 18 -19 28 9 7 16 17 17 22 1 19 37 65 55 71 9 3 15 10
12 15 -7 10 -19 12 -28 3z"/>
<path d="M2098 3963 c12 -2 32 -2 45 0 12 2 2 4 -23 4 -25 0 -35 -2 -22 -4z"/>
<path d="M2208 3953 c7 -3 16 -2 19 1 4 3 -2 6 -13 5 -11 0 -14 -3 -6 -6z"/>
<path d="M2370 3936 c0 -2 25 -22 55 -45 34 -26 55 -49 55 -62 0 -11 10 -23
24 -28 13 -5 26 -16 29 -24 5 -15 47 -31 47 -18 0 17 -149 159 -178 169 -18 6
-32 9 -32 8z"/>
<path d="M1784 3913 c27 -4 28 -6 22 -44 -6 -39 -6 -39 25 -37 28 2 54 18 29
18 -8 0 -8 6 0 20 6 11 8 20 4 20 -3 0 -1 7 6 15 11 13 4 15 -51 14 -35 -1
-51 -4 -35 -6z"/>
<path d="M1688 3903 c7 -3 16 -2 19 1 4 3 -2 6 -13 5 -11 0 -14 -3 -6 -6z"/>
<path d="M1902 3798 c-12 -13 -33 -36 -47 -53 -15 -16 -24 -24 -20 -17 4 8 -1
12 -15 12 -12 0 -18 4 -15 11 4 6 13 8 21 5 7 -3 23 3 36 14 l23 18 -26 7
c-33 8 -303 -47 -422 -86 -50 -17 -138 -53 -194 -79 -57 -27 -103 -47 -103
-44 0 2 35 22 78 43 42 22 73 40 67 40 -20 1 -210 -107 -208 -118 2 -6 -4 -8
-14 -4 -10 4 -14 2 -9 -5 3 -6 1 -14 -5 -18 -8 -5 -9 -3 -4 6 5 8 3 11 -6 8
-8 -3 -14 -10 -14 -16 0 -5 -4 -14 -9 -19 -5 -5 -6 -2 -1 6 5 9 3 12 -6 9 -8
-3 -13 -11 -11 -17 1 -7 -2 -10 -8 -6 -13 8 -42 -14 -35 -25 3 -4 -3 -14 -13
-21 -15 -13 -16 -12 -3 4 24 30 0 18 -58 -29 -323 -265 -544 -621 -639 -1026
-26 -109 -31 -140 -42 -282 -15 -192 13 -462 65 -616 l15 -45 -6 40 c-8 54 -1
43 26 -40 31 -97 81 -206 91 -199 5 3 9 -5 9 -18 0 -13 7 -32 15 -42 8 -11 15
-15 15 -9 0 6 7 13 14 16 11 4 13 1 9 -11 -4 -9 -11 -20 -17 -24 -6 -4 -3 -14
9 -27 17 -20 35 -48 52 -81 4 -8 15 -24 26 -35 10 -11 26 -32 35 -47 16 -28
32 -37 32 -18 0 6 -4 10 -10 10 -12 0 -44 60 -36 68 3 3 6 0 6 -7 0 -6 10 -16
23 -21 12 -6 30 -15 39 -22 15 -10 20 -9 32 7 9 11 16 15 16 9 0 -5 -4 -14 -9
-20 -5 -5 -3 -22 5 -41 10 -22 22 -33 45 -38 32 -7 54 8 42 28 -3 5 -9 3 -14
-4 -5 -8 -9 -9 -9 -3 0 27 17 21 57 -18 40 -39 58 -68 32 -53 -6 4 -5 -2 3
-14 7 -12 17 -21 22 -21 4 0 2 8 -5 18 -8 9 29 -24 81 -73 234 -222 472 -351
770 -415 180 -39 542 -36 606 5 12 7 39 17 60 21 68 12 224 73 329 127 108 57
249 147 241 155 -3 2 -19 -6 -36 -18 -110 -78 -387 -200 -455 -200 -11 0 34
18 99 40 113 38 253 105 286 136 8 8 -10 1 -40 -15 -100 -54 -170 -75 -170
-51 0 7 8 9 21 5 14 -5 19 -3 15 3 -3 6 3 13 14 17 13 4 19 13 16 28 -3 23 10
36 81 80 23 15 45 22 48 17 3 -5 -10 -16 -30 -24 -20 -9 -34 -20 -31 -25 4 -5
1 -13 -5 -17 -8 -4 -9 -3 -5 4 4 7 4 12 -1 12 -14 -1 -43 -27 -43 -39 0 -16
17 -13 24 5 3 8 10 13 15 10 5 -3 21 6 37 19 47 42 52 44 60 37 5 -4 2 1 -5
11 -8 9 -12 19 -10 20 60 41 129 100 189 160 41 41 79 73 84 70 5 -3 6 -1 3 4
-4 6 3 19 14 29 93 83 287 410 274 461 -5 21 23 109 32 100 2 -3 -4 -23 -13
-46 -9 -23 -14 -44 -12 -47 6 -6 45 89 53 131 4 17 12 46 20 65 7 19 16 57 19
83 4 27 10 59 12 70 25 116 34 204 35 327 1 160 16 164 18 5 1 -95 -14 -262
-27 -295 -3 -8 -13 -51 -23 -95 -24 -116 -45 -188 -80 -273 -36 -90 -33 -106
5 -23 43 95 67 175 106 356 6 28 14 57 17 65 3 8 5 23 4 34 -2 10 2 15 7 12 5
-3 10 4 9 17 0 12 3 56 7 97 13 146 13 199 0 225 -8 16 -9 27 -2 31 7 4 6 9
-2 14 -7 5 -9 16 -5 30 25 78 58 -164 52 -375 -2 -82 -1 -123 3 -90 l7 60 1
-57 c1 -31 -3 -60 -8 -63 -6 -3 -8 -25 -5 -48 4 -29 3 -36 -3 -22 -8 17 -10
15 -14 -15 -3 -19 -2 -36 2 -38 11 -4 2 -54 -12 -67 -8 -7 -9 -5 -5 8 4 10 3
16 -2 12 -5 -3 -12 -19 -16 -35 -23 -107 -135 -338 -226 -468 -27 -38 -36 -61
-33 -78 3 -18 1 -23 -7 -18 -8 4 -9 3 -5 -5 8 -12 -129 -161 -147 -161 -6 0
20 31 56 69 37 38 67 72 67 75 0 9 -135 -134 -135 -142 -1 -17 -18 -33 -31
-28 -8 3 -13 2 -11 -3 2 -10 -94 -86 -180 -142 -35 -23 -63 -45 -63 -51 0 -6
10 -3 23 6 12 9 29 19 37 23 46 20 145 95 279 210 68 58 145 155 131 163 -9 6
-9 9 -1 14 6 4 8 12 5 18 -4 7 -2 8 4 4 6 -4 9 -13 5 -21 -9 -25 11 -16 30 13
9 15 35 54 57 87 49 75 120 211 120 230 0 7 5 17 10 20 7 4 9 -3 5 -22 -3 -17
4 -7 20 26 30 64 32 77 5 36 -20 -31 -27 -29 -11 3 11 21 28 85 36 136 7 42
33 89 45 81 4 -2 16 46 26 108 23 133 25 445 5 542 -28 136 -129 426 -138 398
-3 -7 2 -24 10 -40 8 -15 17 -46 21 -68 4 -26 -7 -6 -32 60 -21 55 -46 117
-55 139 -20 46 -21 49 -6 40 15 -9 -29 68 -109 191 -122 186 -344 385 -543
485 -31 16 -69 44 -84 62 -48 58 -128 139 -149 150 l-21 11 21 -24 c11 -13 44
-52 73 -86 l52 -62 -62 25 c-141 58 -513 124 -693 124 l-68 0 16 23 c48 66 53
104 8 55z m-143 -58 c-8 -5 -40 -11 -70 -14 -53 -5 -53 -5 -10 4 24 5 46 12
49 15 3 3 15 5 26 5 17 -1 18 -2 5 -10z m-32 -36 c-3 -3 -12 -4 -19 -1 -8 3
-5 6 6 6 11 1 17 -2 13 -5z m301 -91 c19 -5 -50 -8 -158 -8 -104 0 -186 1
-181 3 47 16 276 19 339 5z m-383 -23 c-11 -5 -29 -8 -40 -8 -16 0 -15 2 5 8
34 11 60 11 35 0z m-525 -24 c0 -2 -7 -7 -16 -10 -8 -3 -12 -2 -9 4 6 10 25
14 25 6z m335 -61 c-27 -13 -54 -24 -60 -24 -5 0 13 11 40 25 28 13 55 23 60
23 6 0 -12 -11 -40 -24z m-109 -48 c-21 -12 -70 -42 -110 -68 -95 -60 -96 -61
-96 -55 0 13 212 143 235 145 6 0 -7 -10 -29 -22z m361 -13 c-3 -3 -12 -4 -19
-1 -8 3 -5 6 6 6 11 1 17 -2 13 -5z m-47 -24 c-20 -13 -33 -13 -25 0 3 6 14
10 23 10 15 0 15 -2 2 -10z m-40 -14 c0 -3 -17 -10 -37 -16 -58 -19 -198 -82
-201 -92 -2 -4 -34 -26 -70 -47 -88 -52 -170 -111 -154 -111 7 0 10 -5 7 -11
-4 -6 -13 -8 -20 -5 -8 3 -26 -4 -42 -16 -15 -11 -3 2 27 30 30 28 51 51 46
52 -13 0 -139 -104 -179 -149 -19 -21 -41 -42 -48 -46 -8 -4 22 29 66 75 74
77 234 192 335 242 113 56 270 111 270 94z m-500 -90 c0 -2 -21 -20 -47 -41
l-48 -37 44 41 c41 39 51 46 51 37z m-180 -30 c0 -2 -8 -10 -17 -17 -16 -13
-17 -12 -4 4 13 16 21 21 21 13z m-40 -29 c0 -2 -12 -14 -27 -28 l-28 -24 24
28 c23 25 31 32 31 24z m240 -51 c0 -2 -8 -10 -17 -17 -16 -13 -17 -12 -4 4
13 16 21 21 21 13z m454 -10 c-3 -8 -40 -27 -82 -42 -42 -16 -79 -32 -80 -37
-2 -4 -40 -25 -83 -46 -179 -87 -377 -269 -449 -411 -12 -25 -28 -52 -35 -60
-23 -26 -81 -173 -104 -261 -37 -146 -46 -367 -21 -508 6 -30 10 -62 9 -70 -1
-27 -28 80 -34 139 -4 30 -11 64 -16 76 -7 14 -7 63 1 155 16 173 20 237 20
274 0 21 3 26 9 16 10 -16 13 -11 37 59 10 30 19 57 20 60 1 3 5 15 9 27 4 13
12 20 18 16 5 -3 7 -1 4 4 -7 12 31 108 40 100 2 -3 0 -14 -6 -25 -17 -31 -13
-40 5 -14 9 13 14 32 11 43 -4 14 -1 19 11 17 10 -2 16 3 14 10 -1 8 2 11 7 7
12 -7 33 29 23 40 -4 5 -1 4 7 0 11 -6 13 -4 8 8 -4 10 -2 16 5 14 6 -1 13 4
16 12 3 9 0 11 -8 6 -7 -4 -4 4 5 19 9 14 21 23 26 20 5 -3 9 2 9 11 0 9 4 13
10 10 10 -6 80 62 80 78 0 5 4 6 9 3 5 -3 11 1 15 9 3 8 11 15 18 15 16 0 67
39 52 40 -5 0 -15 -5 -22 -12 -7 -7 -12 -8 -12 -3 0 14 77 76 98 80 9 2 23 4
30 4 6 1 12 6 12 12 0 5 -6 7 -12 3 -29 -18 14 25 53 51 32 23 42 26 52 15 9
-10 9 -11 0 -6 -7 4 -29 -4 -48 -17 -53 -36 -17 -44 48 -10 38 19 196 78 224
83 1 0 0 -6 -3 -14z m-764 0 c0 -2 -8 -10 -17 -17 -16 -13 -17 -12 -4 4 13 16
21 21 21 13z m110 -29 c0 -2 -12 -14 -27 -28 l-28 -24 24 28 c23 25 31 32 31
24z m-135 -37 c-10 -11 -22 -20 -28 -20 -5 0 1 9 14 20 31 25 37 25 14 0z
m2463 -42 c15 -23 40 -59 55 -82 33 -49 138 -258 132 -264 -2 -2 -25 38 -51
89 -55 111 -106 193 -144 234 -15 17 -31 41 -35 54 -10 33 9 19 43 -31z
m-2180 -23 c-26 -25 -44 -45 -41 -45 4 0 -6 -13 -22 -30 -15 -16 -33 -28 -39
-27 -6 1 -10 -4 -8 -11 1 -8 -2 -11 -7 -8 -20 13 -211 -236 -211 -275 0 -5 -4
-8 -9 -5 -5 4 -12 -7 -16 -23 -3 -16 -15 -39 -26 -52 -11 -12 -17 -30 -14 -40
3 -9 2 -20 -3 -23 -12 -7 -7 42 7 79 7 16 27 50 44 75 18 25 45 65 59 90 40
67 156 196 245 272 90 77 109 88 41 23z m609 29 c-3 -3 -12 -4 -19 -1 -8 3 -5
6 6 6 11 1 17 -2 13 -5z m-837 -18 c0 -2 -8 -10 -17 -17 -16 -13 -17 -12 -4 4
13 16 21 21 21 13z m180 -20 c0 -2 -8 -10 -17 -17 -16 -13 -17 -12 -4 4 13 16
21 21 21 13z m60 -10 c0 -2 -8 -10 -17 -17 -16 -13 -17 -12 -4 4 13 16 21 21
21 13z m-370 -20 c0 -2 -7 -9 -15 -16 -13 -11 -14 -10 -9 4 5 14 24 23 24 12z
m750 0 c0 -2 -33 -23 -72 -46 -110 -65 -232 -165 -289 -236 -17 -22 -36 -39
-42 -39 -7 0 -18 -5 -26 -10 -18 -11 44 69 80 105 86 82 188 157 267 196 65
32 82 38 82 30z m69 0 c-10 -9 -69 -36 -69 -32 0 7 52 35 64 36 5 0 7 -2 5 -4z
m-619 -53 c-1 -5 -15 -24 -32 -43 -32 -36 -28 -24 7 23 21 28 25 31 25 20z
m590 2 c0 -2 -10 -9 -22 -15 -22 -11 -22 -10 -4 4 21 17 26 19 26 11z m-866
-55 c-20 -27 -38 -50 -41 -50 -5 0 31 55 55 83 29 33 22 17 -14 -33z m496 -13
c-30 -29 -68 -69 -83 -88 -27 -32 -27 -32 -8 -2 26 38 27 50 4 32 -16 -13 -17
-12 -4 3 7 10 17 16 21 13 5 -3 12 4 15 15 4 12 19 27 33 33 15 7 36 20 46 29
11 10 22 18 25 18 3 0 -19 -24 -49 -53z m860 17 c0 -20 -5 -24 -27 -23 -26 2
-26 2 -4 6 18 4 22 10 18 29 -2 13 0 21 4 18 5 -3 9 -16 9 -30z m37 6 c-5 -34
-17 -35 -17 -1 0 19 4 30 10 26 5 -3 8 -15 7 -25z m-1017 16 c0 -2 -7 -9 -15
-16 -13 -11 -14 -10 -9 4 5 14 24 23 24 12z m225 -16 c-10 -11 -21 -18 -23
-15 -3 3 3 12 14 20 27 20 30 18 9 -5z m450 11 c-6 -5 -35 -19 -65 -32 -99
-41 -249 -145 -302 -208 -21 -25 -23 -35 -5 -25 7 4 8 3 4 -2 -5 -5 -16 -9
-24 -9 -9 0 -18 -6 -21 -14 -3 -9 0 -11 9 -6 8 5 11 5 7 1 -3 -4 -10 -8 -15
-7 -4 0 -19 -10 -32 -22 l-25 -22 22 32 c32 46 200 200 250 230 38 23 190 93
202 93 2 0 0 -4 -5 -9z m238 2 c3 -5 1 -17 -3 -28 -6 -17 -7 -16 -12 8 -5 25
5 37 15 20z m31 -8 c-4 -8 -8 -15 -10 -15 -2 0 -4 7 -4 15 0 8 4 15 10 15 5 0
7 -7 4 -15z m111 -15 c1 -11 -2 -20 -7 -20 -4 0 -8 12 -8 27 0 30 13 24 15 -7z
m35 0 c0 -10 -4 -22 -10 -25 -6 -4 -10 7 -10 25 0 18 4 29 10 25 6 -3 10 -15
10 -25z m-245 10 c-3 -5 -10 -10 -16 -10 -5 0 -9 5 -9 10 0 6 7 10 16 10 8 0
12 -4 9 -10z m31 -10 c0 -11 -4 -20 -8 -20 -4 0 -8 9 -8 20 0 11 4 20 8 20 4
0 8 -9 8 -20z m250 4 c-3 -9 -6 -20 -6 -25 0 -5 -4 -9 -9 -9 -4 0 -6 11 -3 25
2 14 9 25 14 25 6 0 7 -7 4 -16z m-1116 2 c0 -2 -8 -10 -17 -17 -16 -13 -17
-12 -4 4 13 16 21 21 21 13z m313 -24 c-109 -94 -136 -116 -129 -104 10 17
145 132 154 132 4 0 -7 -13 -25 -28z m481 13 c-4 -8 -8 -15 -10 -15 -2 0 -4 7
-4 15 0 8 4 15 10 15 5 0 7 -7 4 -15z m354 -10 c-1 -14 -6 -25 -10 -25 -4 0
-8 11 -8 25 0 14 4 25 10 25 5 0 9 -11 8 -25z m34 -10 c-2 -14 -9 -25 -14 -25
-6 0 -7 7 -4 16 3 9 6 22 6 30 0 9 4 13 9 10 4 -3 6 -17 3 -31z m-1327 -64
c-36 -49 -86 -125 -111 -168 -25 -43 -42 -67 -39 -53 4 14 13 32 19 40 7 8 25
38 41 65 29 51 142 205 151 205 2 0 -25 -40 -61 -89z m490 57 c-22 -17 -85
-77 -140 -132 -93 -94 -103 -94 -18 1 40 44 180 163 191 163 4 -1 -11 -15 -33
-32z m385 22 c0 -5 -5 -10 -11 -10 -5 0 -7 5 -4 10 3 6 8 10 11 10 2 0 4 -4 4
-10z m37 4 c-3 -3 -12 -4 -19 -1 -8 3 -5 6 6 6 11 1 17 -2 13 -5z m449 -40
c-3 -8 -10 -14 -15 -14 -10 0 -9 9 6 48 6 16 6 16 10 -1 3 -10 2 -25 -1 -33z
m-1531 6 c-9 -16 -18 -30 -21 -30 -2 0 2 14 11 30 9 17 18 30 21 30 2 0 -2
-13 -11 -30z m1565 0 c0 -20 -5 -30 -14 -30 -12 0 -13 6 -5 30 6 17 13 30 15
30 2 0 4 -13 4 -30z m-1328 -12 c-7 -7 -12 -8 -12 -2 0 14 12 26 19 19 2 -3
-1 -11 -7 -17z m1363 -5 c-8 -31 -13 -39 -20 -31 -9 9 6 58 17 58 6 0 7 -11 3
-27z m-655 13 c0 -3 -4 -8 -10 -11 -5 -3 -10 -1 -10 4 0 6 5 11 10 11 6 0 10
-2 10 -4z m687 -26 c-8 -37 -2 -38 17 -2 13 24 15 25 22 8 4 -11 2 -21 -7 -26
-7 -5 -10 -13 -5 -17 5 -4 10 -3 13 2 2 6 8 17 13 25 14 23 24 3 12 -25 -7
-15 -8 -25 -2 -25 6 0 10 4 10 8 0 5 6 16 13 26 13 17 14 18 20 2 5 -11 3 -15
-5 -10 -6 4 -8 3 -4 -4 3 -6 2 -13 -4 -17 -5 -3 -10 -12 -10 -18 0 -7 10 1 22
16 26 36 44 16 21 -22 -14 -22 -12 -22 10 4 25 28 26 29 27 8 0 -12 -4 -25
-10 -28 -5 -3 -10 -12 -10 -18 0 -7 11 1 23 17 19 24 25 26 30 13 3 -8 -1 -21
-9 -27 -8 -7 -14 -17 -14 -23 0 -6 7 -1 16 11 8 12 19 22 25 22 14 0 11 -22
-8 -44 -15 -18 -14 -18 8 2 14 12 28 22 32 22 13 0 7 -23 -10 -44 -14 -17 -13
-16 9 2 33 30 44 13 16 -24 l-22 -29 25 23 c14 12 28 22 32 22 16 0 5 -30 -15
-44 -12 -9 -19 -18 -17 -21 3 -3 16 6 28 19 22 24 23 24 42 5 25 -25 24 -31
-9 -56 l-28 -21 -78 79 c-68 69 -198 168 -238 181 -10 4 -10 10 -1 31 17 36
27 34 20 -3z m-1438 -57 c-40 -60 -38 -57 -44 -51 -3 3 0 12 8 19 7 8 22 29
32 47 11 17 23 32 28 32 4 0 -6 -21 -24 -47z m651 33 c0 -3 -4 -8 -10 -11 -5
-3 -10 -1 -10 4 0 6 5 11 10 11 6 0 10 -2 10 -4z m-789 -29 c-10 -9 -11 -8 -5
6 3 10 9 15 12 12 3 -3 0 -11 -7 -18z m-221 -27 c-11 -22 -23 -40 -25 -40 -3
0 4 18 15 40 11 22 23 40 25 40 3 0 -4 -18 -15 -40z m830 27 c0 -2 -15 -16
-32 -33 l-33 -29 29 33 c28 30 36 37 36 29z m120 -7 c0 -5 -5 -10 -11 -10 -5
0 -7 5 -4 10 3 6 8 10 11 10 2 0 4 -4 4 -10z m-361 -102 c-33 -45 -79 -121
-102 -169 -44 -92 -71 -124 -36 -42 36 85 172 292 191 293 5 0 -19 -37 -53
-82z m331 78 c0 -3 -4 -8 -10 -11 -5 -3 -10 -1 -10 4 0 6 5 11 10 11 6 0 10
-2 10 -4z m-500 -36 c-12 -16 -24 -30 -26 -30 -3 0 4 14 16 30 12 17 24 30 26
30 3 0 -4 -13 -16 -30z m1027 4 c2 -6 -9 -9 -27 -6 -16 2 -30 10 -30 17 0 16
52 5 57 -11z m-1006 -19 c-12 -19 -31 -52 -43 -72 -13 -21 -29 -54 -37 -73
-20 -52 -71 -191 -81 -220 -6 -18 -9 -20 -9 -7 -1 11 5 33 13 50 7 18 28 73
46 122 32 90 50 126 98 198 31 47 41 49 13 2z m449 31 c0 -3 -4 -8 -10 -11 -5
-3 -10 -1 -10 4 0 6 5 11 10 11 6 0 10 -2 10 -4z m730 -11 c7 -8 8 -15 2 -15
-5 0 -15 7 -22 15 -7 8 -8 15 -2 15 5 0 15 -7 22 -15z m-1619 -22 c-12 -20
-14 -14 -5 12 4 9 9 14 11 11 3 -2 0 -13 -6 -23z m1304 7 c3 -5 12 -7 20 -3 8
3 15 0 15 -6 0 -6 -4 -11 -10 -11 -5 0 -10 -8 -10 -18 0 -23 -19 -42 -42 -42
-10 0 -18 -5 -18 -12 0 -25 -12 3 -17 38 -4 29 -1 41 13 51 21 15 40 17 49 3z
m225 -4 c0 -3 -4 -8 -10 -11 -5 -3 -10 -1 -10 4 0 6 5 11 10 11 6 0 10 -2 10
-4z m60 -43 c0 -13 3 -13 15 -3 9 7 18 10 21 7 3 -3 -3 -10 -14 -16 -14 -8
-24 -6 -38 5 -11 9 -13 12 -5 8 11 -5 13 -3 8 10 -4 10 -3 15 3 11 6 -3 10
-13 10 -22z m-49 -6 c-10 -9 -11 -8 -5 6 3 10 9 15 12 12 3 -3 0 -11 -7 -18z
m-1068 -47 c-9 -17 -21 -30 -26 -30 -5 0 -6 -7 -3 -16 3 -8 2 -12 -3 -9 -5 3
-12 -4 -16 -15 -3 -11 -10 -20 -14 -20 -23 0 -91 -223 -91 -300 0 -22 -5 -30
-17 -31 -11 0 -13 -3 -5 -6 15 -6 16 -50 1 -55 -11 -4 -14 -201 -4 -218 3 -5
1 -11 -3 -14 -24 -14 -29 226 -8 336 27 142 94 306 169 412 17 24 21 26 29 12
6 -11 3 -26 -9 -46z m540 3 c-74 -90 -151 -218 -139 -231 3 -3 18 1 33 8 16 7
32 12 37 11 5 -1 25 13 44 31 30 29 33 30 27 11 -9 -32 18 -30 51 2 14 14 29
25 34 25 16 0 21 19 10 40 -9 16 -8 20 5 20 8 0 15 -7 15 -15 0 -21 69 25 70
46 0 23 26 44 35 28 4 -6 2 -14 -4 -18 -6 -4 -9 -15 -5 -24 5 -13 0 -17 -17
-18 -23 -2 -24 -2 -2 -6 22 -4 22 -5 -13 -56 -20 -29 -41 -55 -47 -59 -19 -12
2 -9 26 4 20 10 21 10 8 -5 -7 -10 -22 -17 -32 -17 -28 0 -69 -22 -69 -37 0
-20 94 -18 114 3 9 8 14 20 10 25 -3 5 6 13 19 18 24 10 63 84 52 101 -3 5 -1
11 5 15 26 16 -10 -94 -42 -130 -21 -22 -20 -46 1 -53 10 -3 12 2 7 21 -5 20
-1 29 14 37 12 6 20 7 20 1 0 -5 -5 -11 -11 -13 -6 -2 -9 -13 -7 -23 3 -17 6
-16 21 10 9 17 16 24 17 17 0 -6 -8 -27 -17 -45 -14 -24 -24 -31 -40 -29 -17
3 -23 -2 -23 -17 0 -27 17 -36 37 -19 14 11 15 11 11 -2 -7 -22 -40 -25 -54
-5 -7 10 -10 31 -7 51 l6 35 -39 -18 c-21 -10 -43 -23 -49 -30 -5 -6 -19 -13
-30 -15 -11 -2 -33 -24 -50 -50 -16 -26 -36 -48 -44 -48 -11 0 -10 5 4 20 18
19 17 20 -3 20 -12 0 -26 -9 -32 -20 -6 -11 -16 -20 -22 -20 -7 0 -6 5 2 15 7
9 10 19 6 22 -10 10 -49 -36 -61 -71 -12 -35 -36 -48 -28 -15 5 18 3 20 -16
14 -12 -4 -21 -2 -21 4 0 6 -4 11 -10 11 -5 0 -10 -9 -10 -21 0 -11 5 -17 10
-14 6 3 10 1 10 -4 0 -15 -37 -14 -44 2 -5 10 -7 10 -12 0 -4 -9 -31 -13 -85
-13 -92 0 -101 12 -45 64 18 18 42 53 53 78 24 52 90 110 103 89 5 -9 9 -10
14 -2 4 6 11 9 16 6 13 -8 33 23 26 42 -4 10 -4 14 0 10 4 -3 26 28 50 69 39
68 127 184 141 184 3 0 -13 -21 -34 -47z m418 28 c-12 -22 -55 -33 -70 -18 -8
8 -1 15 22 23 50 18 59 17 48 -5z m264 0 c6 -3 14 -6 19 -6 5 0 11 -6 14 -12
4 -14 -13 -16 -43 -4 -11 5 -25 4 -32 -1 -9 -7 -13 -7 -13 0 0 6 5 14 10 17 6
4 8 11 5 16 -6 8 18 3 40 -10z m-157 -25 c3 -3 -4 -6 -16 -6 -12 0 -25 0 -29
-1 -4 0 -9 4 -11 9 -3 10 45 8 56 -2z m232 -13 c0 -10 -4 -14 -8 -8 -4 6 -11
13 -16 18 -5 4 -2 7 7 7 10 0 17 -8 17 -17z m54 -23 c-6 -6 -14 -5 -24 1 -13
9 -12 10 3 5 9 -3 17 -1 17 4 0 6 -7 10 -16 10 -8 0 -12 5 -8 11 4 7 11 6 22
-5 10 -10 13 -19 6 -26z m-1878 -7 c-8 -15 -15 -22 -16 -15 0 14 22 53 28 47
2 -2 -3 -16 -12 -32z m624 33 c0 -2 -8 -10 -17 -17 -16 -13 -17 -12 -4 4 13
16 21 21 21 13z m980 -16 c-6 -11 -13 -20 -16 -20 -2 0 0 9 6 20 6 11 13 20
16 20 2 0 0 -9 -6 -20z m63 4 c4 -1 12 -2 19 -3 8 -1 6 -7 -5 -18 -17 -17 -19
-17 -31 -1 -7 10 -16 15 -19 11 -4 -3 -7 -2 -7 4 0 15 12 23 24 15 6 -4 14 -7
19 -8z m-1702 -21 c-12 -20 -14 -14 -5 12 4 9 9 14 11 11 3 -2 0 -13 -6 -23z
m1483 -4 c-5 -9 -44 1 -44 11 0 13 34 17 42 6 4 -6 5 -13 2 -17z m502 3 c-10
-9 -47 -9 -52 0 -5 7 -2 8 6 3 10 -6 12 -4 8 7 -5 13 -3 14 17 4 13 -6 22 -12
21 -14z m-743 -2 c3 -11 1 -18 -4 -14 -5 3 -9 12 -9 20 0 20 7 17 13 -6z m29
-12 c-8 -8 -9 -4 -5 13 4 13 8 18 11 10 2 -7 -1 -18 -6 -23z m988 21 c0 -6
-10 -20 -22 -31 l-23 -20 28 16 c39 24 52 10 19 -20 l-27 -25 27 16 c15 9 32
14 39 10 7 -5 0 -15 -20 -28 -18 -11 -30 -22 -27 -24 2 -3 16 3 30 13 38 24
46 7 11 -23 l-30 -25 33 17 c45 22 54 10 17 -21 l-30 -25 33 16 c19 9 36 14
39 11 8 -8 -7 -26 -21 -26 -8 0 -19 -7 -26 -15 -16 -19 -7 -19 30 0 25 13 30
13 30 2 0 -8 -12 -19 -26 -26 -15 -6 -24 -14 -21 -17 3 -3 14 -1 25 5 12 6 25
11 31 11 21 0 10 -17 -21 -34 -32 -16 -28 -17 20 -2 35 11 27 -13 -10 -29 -37
-16 -23 -20 16 -5 21 7 26 6 26 -5 0 -8 -17 -19 -41 -25 -23 -6 -39 -14 -36
-17 3 -3 22 0 42 7 20 7 39 10 42 7 10 -11 -7 -25 -38 -31 -18 -3 -30 -9 -27
-12 4 -3 22 -1 42 4 51 14 49 -11 -1 -26 l-38 -11 43 6 c24 3 42 1 42 -5 0
-12 -24 -22 -51 -22 -10 0 -19 -4 -19 -9 0 -5 15 -5 35 -1 27 6 35 5 35 -6 0
-9 -11 -14 -29 -14 -17 0 -33 -5 -36 -10 -4 -7 8 -8 34 -4 34 5 41 4 41 -10 0
-12 -11 -16 -42 -18 l-43 -1 43 -4 c23 -2 42 -9 42 -14 0 -6 -17 -9 -37 -7
-22 2 -37 -1 -35 -7 1 -6 18 -9 37 -7 26 2 35 -1 35 -13 0 -11 -12 -15 -42
-17 l-43 -1 43 -4 c23 -2 42 -9 42 -14 0 -6 -16 -9 -37 -7 -33 3 -37 0 -40
-25 -3 -26 -2 -27 37 -27 27 0 40 -4 40 -14 0 -10 -9 -12 -40 -6 -39 7 -50 5
-50 -12 0 -5 11 -6 24 -2 13 3 27 1 31 -5 3 -6 11 -9 16 -6 5 4 9 1 9 -5 0 -6
-14 -8 -38 -4 l-38 6 -16 -53 c-10 -29 -15 -56 -12 -61 3 -4 0 -8 -6 -8 -7 0
-9 -8 -5 -20 4 -12 2 -20 -5 -20 -6 0 -10 -6 -7 -12 2 -7 11 -12 21 -10 9 2
16 -2 16 -9 0 -6 7 -9 15 -6 8 4 17 2 21 -4 11 -19 -3 -20 -41 -5 -43 18 -46
19 -43 9 1 -5 -5 -19 -13 -33 -85 -137 -114 -175 -181 -242 -43 -42 -88 -80
-100 -84 -30 -9 -51 -31 -43 -45 5 -7 11 -5 18 5 10 14 15 11 34 -18 16 -25
18 -34 7 -32 -7 1 -21 11 -30 22 -15 19 -16 19 -9 -1 10 -32 10 -33 3 -32 -4
1 -14 -7 -22 -18 -9 -11 -16 -16 -16 -11 0 6 -7 1 -15 -10 -15 -18 -15 -18 -8
0 4 13 3 17 -5 12 -8 -5 -10 -1 -5 10 5 13 3 15 -7 9 -9 -5 -11 -4 -6 4 4 6
11 9 16 6 4 -3 7 6 6 20 0 14 -7 25 -15 25 -7 0 -11 -6 -8 -15 4 -8 2 -17 -3
-20 -4 -3 -10 0 -12 6 -2 7 -13 9 -26 5 -16 -6 -21 -13 -17 -26 3 -10 1 -21
-5 -25 -6 -3 -10 3 -10 14 0 12 -4 21 -10 21 -13 0 -13 -1 5 -43 17 -42 19
-57 6 -57 -5 0 -15 17 -21 38 -7 20 -16 41 -21 47 -12 13 -11 4 6 -45 18 -52
18 -50 1 -50 -8 0 -18 19 -25 45 -6 25 -16 45 -21 45 -6 0 -10 -4 -10 -10 0
-5 4 -10 9 -10 12 0 22 -73 12 -83 -5 -5 -14 14 -21 42 -7 28 -16 51 -21 51
-6 0 -6 -7 -1 -18 17 -33 22 -82 9 -82 -8 0 -17 21 -23 50 l-10 50 75 25 c130
43 216 98 321 204 145 145 213 275 246 464 21 121 14 246 -22 362 -29 94 -58
160 -93 213 l-35 53 30 24 c32 27 44 31 44 14z m-1090 -14 c14 -16 10 -18 -14
-9 -9 3 -16 10 -16 15 0 14 16 11 30 -6z m-915 -31 c-8 -20 -15 -39 -15 -42 0
-3 -2 -3 -5 0 -6 5 22 78 30 78 3 0 -2 -16 -10 -36z m1520 26 c-26 -11 -35
-12 -35 -2 0 4 12 8 28 9 23 1 24 1 7 -7z m286 -15 c1 -19 -20 -16 -31 4 -9
18 -8 20 11 13 11 -5 20 -12 20 -17z m-1886 -15 c-10 -11 -23 -20 -28 -20 -6
0 0 11 13 25 27 29 42 25 15 -5z m625 19 c0 -4 -9 -7 -19 -6 -11 0 -18 4 -16
7 6 9 35 8 35 -1z m1015 -9 c-3 -4 -15 -6 -27 -2 -21 5 -21 6 -2 12 21 8 37 3
29 -10z m-1081 -17 c-23 -35 -64 -120 -64 -132 0 -6 -5 -13 -10 -16 -15 -9 26
89 56 135 15 22 29 40 31 40 3 0 -3 -12 -13 -27z m1114 13 c-7 -8 -15 -12 -17
-11 -5 6 10 25 20 25 5 0 4 -6 -3 -14z m291 -6 c10 -5 8 -8 -7 -12 -12 -4 -26
2 -36 14 -17 19 -16 19 6 13 13 -4 29 -11 37 -15z m-2134 -45 c-10 -25 -20
-43 -23 -41 -2 3 4 25 14 50 24 58 31 51 9 -9z m92 33 c-3 -8 -6 -5 -6 6 -1
11 2 17 5 13 3 -3 4 -12 1 -19z m1840 -12 c-4 -9 -12 -16 -19 -15 -10 0 -10 2
1 6 11 5 11 7 0 14 -11 7 -11 9 -1 9 8 0 10 5 6 13 -5 9 -4 9 6 0 7 -6 10 -19
7 -27z m1187 -89 l5 -52 -13 51 c-7 29 -16 69 -19 90 l-7 39 15 -38 c8 -21 17
-62 19 -90z m-2521 98 c-3 -9 -8 -14 -10 -11 -3 3 -2 9 2 15 9 16 15 13 8 -4z
m177 5 c0 -5 -5 -10 -11 -10 -5 0 -7 5 -4 10 3 6 8 10 11 10 2 0 4 -4 4 -10z
m1120 6 c0 -2 -7 -6 -15 -10 -8 -3 -15 -1 -15 4 0 6 7 10 15 10 8 0 15 -2 15
-4z m265 -15 c-3 -6 -11 -11 -16 -11 -5 0 -4 6 3 14 14 16 24 13 13 -3z m-190
-7 c-13 -14 -14 -19 -3 -26 11 -8 11 -9 0 -6 -8 2 -13 7 -13 11 1 4 1 14 1 22
0 8 7 15 16 15 14 0 14 -2 -1 -16z m51 -19 c1 -17 -3 -25 -15 -24 -9 0 -11 3
-5 5 7 3 10 14 7 24 -3 11 -1 20 3 20 5 0 10 -11 10 -25z m-1853 -38 c-8 -26
-20 -47 -25 -47 -5 0 -8 3 -6 8 2 4 12 26 22 50 24 56 29 50 9 -11z m81 28
c-3 -8 -11 -13 -17 -12 -6 1 -23 -31 -37 -72 -18 -51 -29 -69 -33 -57 -10 26
35 129 64 143 30 16 29 16 23 -2z m1196 11 c0 -2 -8 -10 -17 -17 -16 -13 -17
-12 -4 4 13 16 21 21 21 13z m1189 -53 c11 -29 19 -53 16 -53 -6 0 -45 90 -45
103 0 17 7 5 29 -50z m-524 38 c3 -5 0 -13 -6 -17 -7 -4 -9 -3 -5 4 3 5 0 13
-6 15 -9 4 -10 6 -1 6 6 1 14 -3 18 -8z m-1979 -17 c-3 -9 -6 -18 -6 -20 0 -3
-4 -3 -10 1 -11 7 -2 35 12 35 6 0 7 -7 4 -16z m505 -11 c-12 -20 -14 -14 -5
12 4 9 9 14 11 11 3 -2 0 -13 -6 -23z m2406 5 c-3 -8 -6 -5 -6 6 -1 11 2 17 5
13 3 -3 4 -12 1 -19z m-2967 -3 c-7 -8 -17 -15 -23 -15 -6 0 -2 7 9 15 25 19
30 19 14 0z m2881 -72 c10 -43 21 -116 23 -163 l5 -85 -9 80 c-8 71 -30 184
-47 240 -3 11 -2 17 2 13 4 -4 16 -42 26 -85z m-2044 55 c-3 -8 -6 -5 -6 6 -1
11 2 17 5 13 3 -3 4 -12 1 -19z m1137 -143 c69 -88 126 -164 126 -169 0 -7
-75 85 -228 280 -17 23 -32 45 -32 50 0 10 -6 17 134 -161z m-664 140 c-7 -8
-17 -15 -23 -15 -6 0 -2 7 9 15 25 19 30 19 14 0z m1289 -35 c0 -9 -4 -8 -9 5
-5 11 -9 27 -9 35 0 9 4 8 9 -5 5 -11 9 -27 9 -35z m-2703 -16 c-8 -25 -13
-51 -10 -56 3 -5 0 -15 -6 -23 -7 -8 -12 -30 -13 -50 -1 -36 -17 -51 -17 -16
0 24 27 135 42 174 18 46 21 22 4 -29z m1687 49 c-7 -2 -13 -9 -13 -15 0 -6 7
-7 16 -4 8 3 12 2 9 -4 -9 -15 -32 -12 -38 4 -7 17 1 26 22 25 10 0 12 -2 4
-6z m1399 -18 c3 -14 1 -25 -3 -25 -5 0 -9 11 -9 25 0 14 2 25 4 25 2 0 6 -11
8 -25z m-3115 -7 c-3 -8 -6 -5 -6 6 -1 11 2 17 5 13 3 -3 4 -12 1 -19z m2840
-10 c-3 -8 -6 -5 -6 6 -1 11 2 17 5 13 3 -3 4 -12 1 -19z m-1907 -8 c0 -5 -4
-10 -9 -10 -6 0 -13 5 -16 10 -3 6 1 10 9 10 9 0 16 -4 16 -10z m557 3 c-23
-4 -28 -9 -24 -24 3 -10 1 -19 -4 -19 -5 0 -9 -5 -9 -11 0 -6 14 -9 32 -7 24
2 34 9 36 23 5 30 12 48 17 44 2 -3 0 -21 -4 -40 -6 -26 -4 -41 7 -55 13 -18
14 -17 10 8 -5 25 -3 27 18 22 29 -7 31 7 4 24 -24 15 -26 28 -5 36 19 7 45
-3 45 -16 0 -6 -6 -5 -15 2 -8 6 -19 9 -25 5 -8 -5 -4 -12 9 -22 12 -8 21 -20
21 -27 0 -7 7 -21 16 -32 15 -18 15 -18 10 8 -5 22 -3 25 14 21 26 -7 25 4 -1
26 -18 15 -19 18 -6 29 16 13 47 6 47 -10 0 -6 -7 -5 -15 2 -9 7 -19 10 -23 6
-4 -4 1 -13 11 -20 9 -7 17 -19 17 -25 0 -7 6 -11 13 -8 39 14 66 -52 29 -72
-25 -13 -52 5 -52 34 0 14 -4 25 -10 25 -5 0 -10 -13 -10 -30 0 -34 -7 -38
-26 -12 -13 16 -13 16 -14 0 0 -31 -20 -19 -20 12 0 17 -4 30 -9 30 -5 0 -9
-14 -9 -30 1 -42 -8 -47 -26 -13 -14 26 -15 26 -16 6 0 -35 -20 -27 -20 7 0
21 -5 30 -16 30 -10 0 -14 -5 -10 -15 3 -8 8 -21 11 -28 4 -9 -5 -13 -30 -13
-27 0 -34 3 -30 15 3 8 10 35 16 59 13 59 15 62 47 61 l27 -2 -28 -4z m-1502
-43 c-4 -17 -9 -29 -12 -26 -3 2 -2 19 2 36 4 17 9 29 12 26 3 -2 2 -19 -2
-36z m596 13 c-12 -20 -14 -14 -5 12 4 9 9 14 11 11 3 -2 0 -13 -6 -23z m82
12 c-3 -9 -8 -14 -10 -11 -3 3 -2 9 2 15 9 16 15 13 8 -4z m87 -5 c0 -5 -5
-10 -11 -10 -5 0 -7 5 -4 10 3 6 8 10 11 10 2 0 4 -4 4 -10z m2372 -29 c-4
-11 -7 -10 -13 5 -12 29 -10 36 5 22 7 -7 11 -19 8 -27z m-1627 19 c3 -5 1
-10 -4 -10 -6 0 -11 5 -11 10 0 6 2 10 4 10 3 0 8 -4 11 -10z m1224 -40 c0 -9
-4 -8 -9 5 -5 11 -9 27 -9 35 0 9 4 8 9 -5 5 -11 9 -27 9 -35z m-2569 20 c0
-5 -5 -10 -11 -10 -5 0 -7 5 -4 10 3 6 8 10 11 10 2 0 4 -4 4 -10z m2606 -170
l2 -135 -8 125 c-4 69 -10 141 -14 160 -6 32 -5 33 5 10 7 -14 13 -85 15 -160z
m52 115 c0 -29 0 -29 -8 -5 -4 14 -8 36 -8 50 -1 23 0 23 8 5 5 -11 8 -33 8
-50z m-2632 24 c-6 -39 -12 -45 -19 -19 -3 11 -1 20 5 20 6 0 8 7 4 15 -3 8
-1 15 5 15 6 0 8 -13 5 -31z m564 27 c0 -3 -4 -8 -10 -11 -5 -3 -10 -1 -10 4
0 6 5 11 10 11 6 0 10 -2 10 -4z m-640 -16 c0 -5 -4 -10 -10 -10 -5 0 -10 5
-10 10 0 6 5 10 10 10 6 0 10 -4 10 -10z m140 -35 c-15 -39 -23 -25 -8 16 6
18 13 29 15 23 2 -6 -1 -24 -7 -39z m324 11 c-3 -15 -8 -25 -11 -23 -2 3 -1
17 3 31 3 15 8 25 11 23 2 -3 1 -17 -3 -31z m1210 12 l16 -22 0 22 c0 36 15
25 17 -12 4 -45 -12 -54 -31 -19 -14 26 -15 27 -16 6 0 -38 -20 -26 -20 12 0
40 12 45 34 13z m1095 -52 c2 -45 -6 -27 -12 29 -4 34 -3 42 3 25 4 -14 8 -38
9 -54z m-2660 5 c-6 -28 -13 -51 -16 -51 -3 0 -3 14 1 30 4 20 2 30 -7 30 -6
0 -4 5 6 11 9 5 17 17 17 26 0 9 2 14 5 11 3 -3 0 -28 -6 -57z m204 -3 c-3
-26 -10 -45 -15 -42 -5 3 -6 22 -2 42 13 70 25 70 17 0z m2504 -5 c-3 -10 -5
-2 -5 17 0 19 2 27 5 18 2 -10 2 -26 0 -35z m280 -10 c-3 -10 -5 -2 -5 17 0
19 2 27 5 18 2 -10 2 -26 0 -35z m-2670 -5 c-3 -7 -5 -2 -5 12 0 14 2 19 5 13
2 -7 2 -19 0 -25z m-370 -10 c-3 -8 -6 -5 -6 6 -1 11 2 17 5 13 3 -3 4 -12 1
-19z m2630 0 c-3 -8 -6 -5 -6 6 -1 11 2 17 5 13 3 -3 4 -12 1 -19z m-2160 -55
c-2 -16 -4 -5 -4 22 0 28 2 40 4 28 2 -13 2 -35 0 -50z m83 58 c0 -6 -4 -13
-10 -16 -5 -3 -10 1 -10 9 0 9 5 16 10 16 6 0 10 -4 10 -9z m2107 -43 c-2 -13
-4 -5 -4 17 -1 22 1 32 4 23 2 -10 2 -28 0 -40z m190 20 c-3 -7 -5 -2 -5 12 0
14 2 19 5 13 2 -7 2 -19 0 -25z m-3036 -143 c-7 -124 -8 -130 -9 -50 -2 81 7
200 14 193 1 -2 -1 -66 -5 -143z m2726 98 c-3 -10 -5 -2 -5 17 0 19 2 27 5 18
2 -10 2 -26 0 -35z m183 -12 c0 -45 -6 -37 -14 19 -4 31 -3 40 4 30 5 -8 10
-30 10 -49z m-2730 34 c0 -8 -4 -15 -10 -15 -5 0 -7 7 -4 15 4 8 8 15 10 15 2
0 4 -7 4 -15z m387 -17 c-3 -7 -5 -2 -5 12 0 14 2 19 5 13 2 -7 2 -19 0 -25z
m-350 -30 c-2 -13 -4 -5 -4 17 -1 22 1 32 4 23 2 -10 2 -28 0 -40z m207 0 c-6
-61 -14 -77 -14 -27 0 34 9 79 16 79 2 0 1 -23 -2 -52z m2533 -25 c-2 -16 -4
-3 -4 27 0 30 2 43 4 28 2 -16 2 -40 0 -55z m90 -80 c-4 -82 -11 -164 -16
-183 -9 -31 -10 -29 -5 20 2 30 7 112 11 183 3 70 8 127 11 127 3 0 2 -66 -1
-147z m50 125 c-3 -8 -6 -5 -6 6 -1 11 2 17 5 13 3 -3 4 -12 1 -19z m-2420
-10 c-3 -8 -6 -5 -6 6 -1 11 2 17 5 13 3 -3 4 -12 1 -19z m40 0 c-3 -8 -6 -5
-6 6 -1 11 2 17 5 13 3 -3 4 -12 1 -19z m773 -18 c0 -15 4 -30 9 -32 6 -2 6
-18 2 -38 l-7 -35 -7 28 c-9 33 -30 35 -45 5 -10 -21 -11 -20 -11 12 -1 38 33
105 49 95 6 -3 10 -19 10 -35z m-1312 -69 c-2 -54 -6 -94 -10 -87 -12 18 -4
186 9 186 2 0 2 -45 1 -99z m1075 92 c3 -5 2 -29 -2 -55 -5 -29 -4 -51 3 -58
7 -7 3 -10 -13 -10 -17 0 -22 4 -17 16 3 9 6 38 6 65 0 44 11 63 23 42z m1691
-73 c5 -52 4 -70 -4 -60 -7 11 -10 4 -11 -30 -1 -25 -2 -51 -1 -59 3 -60 -79
-332 -113 -377 -8 -10 -4 6 9 36 22 50 74 232 81 284 10 77 17 149 20 196 1
30 3 64 4 74 2 37 8 10 15 -64z m-1784 30 c0 -22 4 -40 9 -40 5 0 12 18 16 40
9 54 25 51 25 -5 0 -25 -3 -44 -7 -43 -5 0 -16 -2 -26 -7 -25 -11 -47 12 -45
49 2 36 6 46 19 46 5 0 9 -18 9 -40z m175 30 c3 -5 1 -10 -5 -10 -7 0 -11 -15
-10 -37 3 -53 1 -60 -10 -43 -5 8 -10 30 -10 48 0 17 -4 32 -10 32 -5 0 -10 5
-10 10 0 6 11 10 24 10 14 0 28 -4 31 -10z m73 -7 c10 -19 5 -43 -8 -43 -4 0
-6 8 -3 19 3 10 0 21 -5 25 -5 3 -12 -5 -14 -19 -3 -14 -2 -25 1 -25 3 0 12
-9 19 -21 9 -14 10 -19 2 -14 -7 4 -16 1 -21 -6 -12 -21 -21 -4 -27 51 -4 48
-4 50 21 50 15 0 30 -8 35 -17z m209 -1 c-20 -22 -22 -53 -4 -71 10 -11 9 -13
-3 -9 -22 7 -25 56 -4 79 9 10 19 19 22 19 3 0 -2 -8 -11 -18z m177 -81 c-5
-5 -3 -7 -30 46 -12 23 -19 44 -16 47 6 6 51 -87 46 -93z m36 69 c5 0 14 8 20
18 9 14 11 14 7 1 -4 -11 3 -21 19 -28 28 -12 30 -51 4 -58 -13 -4 -13 -3 0 6
22 15 0 45 -35 49 -26 3 -27 2 -23 -32 2 -20 0 -36 -4 -36 -4 0 -7 26 -7 58 1
31 3 49 6 40 2 -10 8 -18 13 -18z m100 20 c0 -5 -4 -10 -10 -10 -5 0 -10 5
-10 10 0 6 5 10 10 10 6 0 10 -4 10 -10z m108 3 c-25 -4 -27 -9 -31 -56 l-3
-52 -2 58 -2 57 33 -1 c29 -2 30 -2 5 -6z m-1498 -12 c0 -6 -4 -13 -10 -16 -5
-3 -10 1 -10 9 0 9 5 16 10 16 6 0 10 -4 10 -9z m2311 -91 l-9 -45 -1 50 c0
28 3 61 7 75 7 25 7 25 10 -5 1 -16 -2 -50 -7 -75z m-2131 80 c0 -5 -5 -10
-11 -10 -5 0 -7 5 -4 10 3 6 8 10 11 10 2 0 4 -4 4 -10z m2089 -134 c-9 -8
-10 -3 -5 23 3 18 7 54 8 80 1 32 3 25 5 -23 3 -44 0 -73 -8 -80z m-877 94 c2
-22 0 -40 -4 -40 -5 0 -8 18 -8 40 0 22 2 40 4 40 2 0 6 -18 8 -40z m1170 -10
c-6 -43 -12 -37 -12 13 0 25 4 37 8 29 5 -7 7 -26 4 -42z m-125 -22 c-2 -13
-4 -3 -4 22 0 25 2 35 4 23 2 -13 2 -33 0 -45z m-2770 -10 c-2 -13 -4 -3 -4
22 0 25 2 35 4 23 2 -13 2 -33 0 -45z m1513 32 c-27 -27 -34 -25 -14 5 9 14
20 22 25 20 4 -3 -1 -15 -11 -25z m-1053 -47 c-2 -16 -4 -5 -4 22 0 28 2 40 4
28 2 -13 2 -35 0 -50z m70 0 c-2 -16 -4 -5 -4 22 0 28 2 40 4 28 2 -13 2 -35
0 -50z m2493 -33 c-7 -43 -8 -43 -8 20 -1 42 2 58 7 45 5 -11 5 -40 1 -65z
m-2803 3 c-2 -16 -4 -5 -4 22 0 28 2 40 4 28 2 -13 2 -35 0 -50z m2300 15 c-3
-7 -5 -2 -5 12 0 14 2 19 5 13 2 -7 2 -19 0 -25z m-30 -70 c-2 -18 -4 -4 -4
32 0 36 2 50 4 33 2 -18 2 -48 0 -65z m394 41 c-6 -16 -10 -18 -10 -7 -1 22
12 55 16 42 2 -6 -1 -22 -6 -35z m-304 9 c-3 -8 -6 -5 -6 6 -1 11 2 17 5 13 3
-3 4 -12 1 -19z m210 0 c-3 -8 -6 -5 -6 6 -1 11 2 17 5 13 3 -3 4 -12 1 -19z
m-483 6 c26 -10 18 -24 -14 -24 -20 0 -30 5 -30 15 0 16 17 19 44 9z m745 -27
c-2 -18 0 -37 4 -43 3 -6 0 -11 -8 -11 -10 0 -13 12 -12 44 1 23 6 43 10 43 5
0 7 -15 6 -33z m-415 -19 c-34 -252 -156 -495 -338 -680 -47 -47 -100 -96
-118 -108 -18 -12 13 22 69 76 118 113 194 216 262 353 54 109 85 196 101 291
17 96 20 110 25 110 3 0 3 -19 -1 -42z m123 -10 c-2 -13 -4 -5 -4 17 -1 22 1
32 4 23 2 -10 2 -28 0 -40z m-2220 -10 c-2 -13 -4 -5 -4 17 -1 22 1 32 4 23 2
-10 2 -28 0 -40z m-440 -45 c-2 -16 -4 -3 -4 27 0 30 2 43 4 28 2 -16 2 -40 0
-55z m118 67 c3 -5 1 -10 -4 -10 -6 0 -11 5 -11 10 0 6 2 10 4 10 3 0 8 -4 11
-10z m-242 -75 c4 -39 3 -50 -2 -30 -9 31 -14 102 -7 94 2 -2 6 -31 9 -64z
m-356 33 c-3 -8 -6 -5 -6 6 -1 11 2 17 5 13 3 -3 4 -12 1 -19z m2900 -10 c-3
-8 -6 -5 -6 6 -1 11 2 17 5 13 3 -3 4 -12 1 -19z m360 0 c-3 -8 -6 -5 -6 6 -1
11 2 17 5 13 3 -3 4 -12 1 -19z m-137 -58 c-7 -33 -17 -60 -22 -60 -6 0 -8 6
-5 13 2 6 10 36 17 64 18 71 26 58 10 -17z m-2193 38 c-3 -8 -6 -5 -6 6 -1 11
2 17 5 13 3 -3 4 -12 1 -19z m1763 -5 c0 -10 -6 -13 -16 -9 -9 3 -22 6 -30 6
-8 0 -14 6 -14 13 0 9 10 12 30 9 18 -3 30 -10 30 -19z m180 1 c0 -8 -4 -14
-10 -14 -5 0 -10 9 -10 21 0 11 5 17 10 14 6 -3 10 -13 10 -21z m562 2 c4 -17
1 -23 -9 -19 -14 6 -18 43 -4 43 5 0 11 -11 13 -24z m-3254 -96 c0 -23 -1 -22
-8 5 -4 17 -8 48 -8 70 l1 40 8 -45 c4 -25 7 -56 7 -70z m1472 64 c0 -31 3
-35 18 -29 46 19 97 23 276 19 l193 -4 32 32 c17 17 31 27 31 21 0 -5 -9 -18
-20 -28 -23 -21 -26 -37 -6 -29 15 6 52 -10 74 -33 15 -15 10 -18 -40 -26 -20
-3 -28 1 -31 15 -3 12 -14 18 -32 18 -25 0 -26 -2 -23 -52 2 -43 7 -54 22 -56
11 -3 25 3 32 12 10 14 13 15 24 1 7 -8 24 -15 39 -15 24 -1 24 -2 -12 -21
-26 -14 -58 -20 -105 -21 -50 0 -99 -11 -197 -43 -195 -64 -268 -78 -393 -73
-91 3 -116 8 -167 31 -33 15 -67 35 -77 43 -35 32 -147 21 -133 -13 3 -10 2
-14 -2 -9 -10 9 -12 36 -13 141 0 44 -4 97 -9 117 -11 46 -27 44 282 40 l237
-3 0 -35z m1527 24 c-3 -8 -6 -5 -6 6 -1 11 2 17 5 13 3 -3 4 -12 1 -19z
m-224 -48 c-9 -34 -18 -58 -21 -56 -4 5 15 90 25 109 11 20 9 2 -4 -53z m74
38 c-3 -8 -6 -5 -6 6 -1 11 2 17 5 13 3 -3 4 -12 1 -19z m114 -35 c-9 -16 -10
-16 -11 -1 0 9 3 25 7 35 7 16 8 17 11 1 2 -10 -1 -25 -7 -35z m-2204 15 c-3
-8 -6 -5 -6 6 -1 11 2 17 5 13 3 -3 4 -12 1 -19z m1733 12 c8 -5 12 -12 8 -15
-9 -9 -59 6 -52 16 7 12 25 11 44 -1z m217 -37 c-3 -10 -5 -2 -5 17 0 19 2 27
5 18 2 -10 2 -26 0 -35z m-37 -23 c-15 -57 -21 -46 -7 14 6 27 13 44 15 38 2
-6 -2 -29 -8 -52z m567 38 c-3 -8 -6 -5 -6 6 -1 11 2 17 5 13 3 -3 4 -12 1
-19z m-400 -10 c-3 -8 -6 -5 -6 6 -1 11 2 17 5 13 3 -3 4 -12 1 -19z m-353 -9
c15 -14 4 -17 -31 -7 -41 11 -45 33 -5 23 15 -3 31 -11 36 -16z m-1696 -64 c0
-5 -6 4 -13 20 -8 17 -14 37 -14 45 0 8 7 -1 14 -20 7 -19 13 -39 13 -45z
m2212 16 c-6 -23 -8 -46 -5 -51 3 -6 1 -10 -5 -10 -6 0 -10 -6 -9 -12 3 -15
-14 -59 -40 -108 -26 -48 -36 -84 -22 -76 7 5 8 1 4 -9 -3 -10 -8 -13 -12 -6
-4 6 -22 -19 -40 -54 -33 -66 -59 -97 -46 -55 5 17 4 20 -5 15 -7 -4 -5 6 6
23 10 18 21 27 24 21 10 -15 71 125 64 147 -4 13 -3 15 3 6 7 -8 16 3 31 41
12 29 22 56 22 61 0 4 7 33 16 63 18 63 31 66 14 4z m231 8 l-9 -34 -1 31 c-1
17 2 34 6 37 12 13 14 -1 4 -34z m-415 -25 c-8 -21 -15 -33 -15 -25 -1 19 23
85 26 74 2 -5 -3 -27 -11 -49z m150 10 c-8 -21 -15 -34 -15 -28 -1 15 20 76
25 71 2 -2 -2 -21 -10 -43z m-491 25 c11 -16 0 -21 -30 -13 -20 5 -23 9 -13
15 18 12 36 11 43 -2z m-388 -67 c-4 -2 -14 2 -23 8 -13 11 -12 15 3 33 18 19
18 19 23 -9 3 -16 2 -31 -3 -32z m812 -13 c-22 -66 -46 -119 -54 -119 -3 0 4
24 16 53 11 28 27 71 36 95 24 67 26 43 2 -29z m38 49 c-3 -8 -6 -5 -6 6 -1
11 2 17 5 13 3 -3 4 -12 1 -19z m-497 1 c0 -6 7 -9 15 -5 9 3 15 0 15 -9 0
-11 -6 -12 -30 -4 -16 6 -27 15 -24 20 7 13 24 11 24 -2z m606 -26 c-6 -33
-13 -59 -34 -123 -3 -11 -6 -11 -9 -3 -5 13 36 163 45 163 2 0 1 -17 -2 -37z
m-3209 -5 c-3 -8 -6 -5 -6 6 -1 11 2 17 5 13 3 -3 4 -12 1 -19z m188 -58 c8
-40 14 -75 12 -77 -5 -5 -24 64 -32 117 -11 69 3 43 20 -40z m908 -151 c69
-82 167 -158 272 -209 84 -41 210 -80 257 -80 25 0 28 -3 28 -34 0 -65 -29
-95 -32 -33 l-1 32 -4 -33 c-6 -47 -29 -35 -26 14 l2 39 -10 -37 c-6 -21 -17
-38 -24 -38 -11 0 -11 7 -4 32 5 18 9 40 8 48 0 8 -6 -3 -12 -24 -16 -51 -42
-63 -33 -15 5 34 5 34 -6 7 -17 -39 -39 -37 -28 2 5 16 11 35 15 42 4 7 -1 4
-9 -6 -9 -11 -16 -25 -16 -32 0 -6 -7 -15 -16 -18 -13 -5 -15 -2 -10 16 16 50
16 61 3 32 -8 -17 -22 -34 -31 -37 -15 -6 -15 -3 -1 30 20 47 18 55 -3 18 -9
-16 -23 -31 -29 -33 -16 -3 -16 7 2 38 8 14 14 30 14 35 0 6 -9 -7 -20 -29
-14 -25 -24 -35 -31 -28 -6 6 -4 20 6 40 12 24 13 32 3 38 -6 4 -9 4 -5 -1 11
-12 -22 -69 -34 -57 -7 7 -6 18 2 33 10 22 10 22 -4 6 -19 -25 -26 -25 -38 -4
-8 15 -12 16 -26 5 -13 -11 -15 -11 -10 4 9 22 -2 30 -20 15 -13 -10 -15 -9
-9 6 5 13 1 17 -15 17 -20 0 -20 1 -5 18 24 26 21 36 -5 18 -33 -23 -45 -19
-21 7 31 35 36 47 18 47 -9 0 -13 -5 -10 -10 4 -6 1 -9 -7 -8 -7 2 -12 -2 -11
-9 1 -6 -4 -14 -12 -17 -21 -8 -18 7 6 33 14 15 18 26 11 33 -6 6 -14 3 -23
-9 -8 -11 -21 -23 -29 -28 -8 -4 -2 6 13 22 21 23 25 33 16 38 -7 5 -19 -1
-31 -15 -10 -12 -21 -20 -24 -17 -3 3 4 15 16 27 29 29 14 48 -16 19 -13 -12
-24 -18 -24 -13 0 5 10 15 21 22 16 10 18 17 10 25 -8 8 -16 5 -31 -11 -24
-26 -26 -26 -36 -9 -4 6 -4 9 0 6 11 -10 56 35 46 45 -6 6 -17 3 -28 -7 -10
-9 -25 -17 -33 -17 -8 1 -2 8 14 16 28 15 34 28 18 38 -5 3 -14 -1 -21 -9 -7
-8 -20 -15 -28 -15 -12 0 -9 5 8 17 14 9 26 17 28 18 1 1 -15 36 -37 76 -23
41 -41 79 -41 84 0 6 20 -26 44 -70 24 -43 68 -109 99 -146z m1982 159 c-17
-51 -63 -148 -71 -148 -5 0 9 34 34 85 11 22 25 60 32 84 6 23 14 41 17 38 3
-3 -3 -30 -12 -59z m306 31 c-5 -13 -10 -19 -10 -12 -1 15 10 45 15 40 3 -2 0
-15 -5 -28z m-2984 -1 c-3 -8 -6 -5 -6 6 -1 11 2 17 5 13 3 -3 4 -12 1 -19z
m705 3 c-8 -4 -13 -12 -13 -17 1 -14 -22 -10 -25 4 -1 7 0 8 3 2 5 -12 24 -14
22 -2 -3 15 1 22 14 22 9 0 9 -2 -1 -9z m1273 -2 c-4 -6 -1 -9 7 -7 7 2 14 -1
14 -7 0 -9 -25 -9 -35 0 -4 4 8 25 15 25 3 0 2 -5 -1 -11z m430 -21 c-7 -31
-73 -172 -125 -266 -13 -24 -46 -66 -73 -95 -45 -48 -46 -48 -13 -7 68 85 206
344 206 388 0 6 3 12 6 12 3 0 2 -15 -1 -32z m-216 8 c14 -8 19 -16 13 -20
-13 -8 -63 14 -56 25 7 12 14 11 43 -5z m366 -8 c-11 -38 -105 -221 -126 -248
l-21 -25 20 35 c28 50 97 189 112 228 14 36 25 43 15 10z m-2548 -20 c-3 -8
-6 -5 -6 6 -1 11 2 17 5 13 3 -3 4 -12 1 -19z m538 8 c-11 -8 -24 -12 -29 -8
-5 3 -1 9 10 13 31 12 39 10 19 -5z m1420 -2 c13 -5 14 -8 3 -15 -19 -13 -28
-11 -28 6 0 17 2 18 25 9z m185 -5 c0 -5 4 -8 8 -5 5 3 9 -1 9 -8 0 -11 -5
-12 -23 -4 -13 6 -21 15 -18 19 7 13 24 11 24 -2z m-1443 -13 c0 -8 -6 -12
-14 -9 -7 3 -10 9 -7 14 8 14 21 11 21 -5z m-147 -11 c-7 -8 -18 -15 -24 -15
-6 0 -2 7 8 15 25 19 32 19 16 0z m1582 -9 c7 5 8 2 3 -6 -6 -10 -4 -12 7 -7
24 9 29 -3 12 -29 -10 -14 -22 -21 -32 -18 -14 5 -13 2 2 -10 20 -16 13 -21
-21 -17 -6 1 -15 -4 -19 -10 -4 -7 -3 -9 4 -5 6 3 13 2 17 -3 3 -6 -6 -8 -21
-5 -21 4 -25 2 -18 -8 6 -7 9 -19 8 -25 -1 -7 -2 -17 -3 -22 -1 -12 -28 -8
-43 7 -23 23 -31 12 -9 -12 12 -13 18 -26 13 -30 -5 -3 -19 5 -30 17 l-22 23
31 35 c17 18 28 28 24 22 -3 -7 -2 -13 4 -13 15 0 23 18 11 25 -15 9 -2 25 16
18 9 -3 14 0 12 8 -2 9 4 13 17 11 18 -2 18 -1 -4 16 l-24 19 24 17 c14 9 25
12 27 6 2 -6 9 -7 14 -4z m-1558 -21 c-7 -16 -24 -21 -24 -6 0 8 7 13 27 20 1
1 0 -6 -3 -14z m1857 -21 c-8 -19 -17 -30 -19 -24 -4 10 23 60 32 60 2 0 -4
-16 -13 -36z m-526 16 c-11 -5 -14 -9 -7 -9 7 -1 10 -6 6 -12 -4 -8 -9 -7 -15
2 -10 17 -2 29 19 28 14 0 13 -2 -3 -9z m-1117 -31 c3 -11 2 -11 -7 1 -8 12
-13 12 -23 2 -10 -10 -10 -15 2 -22 9 -6 10 -10 3 -10 -19 0 -26 20 -12 36 14
17 31 14 37 -7z m1102 -22 c0 -5 -9 -6 -19 -2 -16 5 -19 2 -15 -17 2 -13 1
-16 -2 -8 -4 8 -11 23 -16 33 -8 16 -7 18 11 12 17 -5 20 -3 15 12 -6 16 -5
15 9 -2 9 -11 17 -24 17 -28z m1021 2 c-6 -16 -10 -18 -10 -7 -1 22 12 55 16
42 2 -6 -1 -22 -6 -35z m-2331 21 c0 -5 -5 -10 -11 -10 -5 0 -7 5 -4 10 3 6 8
10 11 10 2 0 4 -4 4 -10z m1998 -31 c-6 -16 -12 -28 -14 -26 -5 5 13 57 20 57
3 0 0 -14 -6 -31z m-1742 -10 c10 -17 -23 -46 -38 -31 -8 8 -8 15 2 27 15 18
26 19 36 4z m999 1 c3 -6 -1 -7 -9 -4 -18 7 -21 14 -7 14 6 0 13 -4 16 -10z
m566 -7 c-5 -10 -17 -27 -26 -38 -16 -19 -17 -19 -3 5 26 46 29 50 34 50 3 0
0 -8 -5 -17z m295 -52 c-14 -28 -26 -57 -26 -64 0 -8 -16 -35 -36 -61 -19 -25
-32 -51 -28 -58 4 -6 3 -8 -3 -5 -6 4 -25 -17 -43 -46 -18 -29 -43 -62 -54
-75 -12 -13 -20 -27 -18 -30 1 -4 -3 -7 -10 -7 -6 0 -13 -6 -16 -14 -3 -9 0
-11 9 -5 25 15 -65 -93 -96 -116 -11 -8 -4 4 16 25 63 71 64 81 1 20 -34 -32
-57 -62 -52 -65 22 -14 -126 -149 -233 -214 -43 -26 -25 -9 53 50 89 66 150
123 142 128 -4 3 -48 -27 -96 -65 -49 -38 -92 -69 -95 -69 -9 1 59 59 101 86
69 44 278 263 316 331 20 36 13 40 -13 8 -14 -16 -25 -25 -25 -19 0 6 7 17 16
25 8 7 22 26 30 42 9 16 18 26 22 23 3 -4 0 -12 -6 -18 -14 -14 -16 -28 -3
-28 5 0 20 19 34 43 14 23 35 53 46 66 12 13 21 35 21 48 0 12 4 23 8 23 5 0
19 22 32 50 13 27 25 48 27 46 3 -2 -7 -27 -21 -55z m-1843 25 c-10 -13 -20
-22 -22 -20 -4 4 29 44 36 44 2 0 -4 -11 -14 -24z m1706 -53 c-52 -91 -188
-269 -189 -247 0 6 7 18 16 25 9 7 34 38 55 69 22 30 53 73 69 95 16 22 39 60
50 84 12 24 24 41 27 38 3 -3 -10 -32 -28 -64z m-1492 35 c-3 -8 -6 -5 -6 6
-1 11 2 17 5 13 3 -3 4 -12 1 -19z m716 7 c-3 -9 -8 -14 -10 -11 -3 3 -2 9 2
15 9 16 15 13 8 -4z m761 -17 c-35 -70 -134 -196 -233 -297 -57 -58 -100 -101
-97 -94 4 7 47 55 97 107 84 88 163 189 218 279 28 46 37 49 15 5z m-1429 12
c3 -5 1 -10 -4 -10 -6 0 -11 5 -11 10 0 6 2 10 4 10 3 0 8 -4 11 -10z m55 0
c0 -5 -10 -10 -22 -9 -22 0 -22 1 -3 9 11 5 21 9 23 9 1 1 2 -3 2 -9z m95 -8
c-3 -3 -11 0 -18 7 -9 10 -8 11 6 5 10 -3 15 -9 12 -12z m1609 -33 c-30 -79
-81 -184 -110 -230 -16 -24 -34 -57 -41 -72 -7 -16 -17 -26 -22 -23 -5 4 -13
1 -17 -5 -4 -8 -3 -9 4 -5 17 10 15 -9 -2 -23 -10 -8 -16 -9 -21 -1 -7 12 -6
14 57 98 27 35 47 67 44 70 -3 2 8 23 24 46 25 36 65 120 84 180 4 10 9 17 12
14 3 -3 -3 -25 -12 -49z m-1965 27 c8 -10 9 -16 1 -21 -6 -4 -9 -2 -8 3 2 6
-1 9 -7 9 -5 -1 -9 -8 -9 -14 1 -7 -2 -13 -7 -13 -13 0 -11 24 3 38 15 15 13
15 27 -2z m854 -16 c3 -11 3 -20 1 -20 -2 0 -8 9 -14 20 -6 11 -7 20 -2 20 6
0 12 -9 15 -20z m251 -52 c-4 -5 -19 3 -35 18 -15 15 -26 31 -23 36 4 5 19 -3
35 -18 15 -15 26 -31 23 -36z m-1047 37 c-2 -5 -10 -10 -18 -11 -30 -2 -33 -6
-14 -14 16 -7 17 -9 3 -9 -22 -1 -33 17 -19 32 12 15 53 17 48 2z m777 -2 c4
-10 4 -14 0 -10 -4 4 -14 1 -23 -6 -14 -11 -15 -10 -1 7 14 18 13 19 -3 13
-11 -4 -16 -3 -12 3 10 16 32 12 39 -7z m-75 -33 c11 -24 11 -24 -3 -6 -9 11
-16 24 -16 30 0 12 5 7 19 -24z m325 -32 c-4 -5 -19 3 -35 18 -16 15 -29 23
-29 17 0 -5 9 -18 20 -28 11 -10 17 -22 14 -27 -3 -5 -15 -2 -25 8 -23 21 -25
8 -3 -17 13 -15 14 -17 1 -15 -8 1 -22 8 -31 15 -21 17 -21 3 0 -20 17 -18 2
-22 -23 -6 -16 10 -17 -5 -2 -20 9 -9 7 -11 -7 -9 -12 2 -18 10 -16 21 2 9 -1
14 -7 11 -5 -4 -13 -1 -16 4 -9 15 25 51 39 43 19 -12 37 -12 33 0 -3 7 -10
11 -17 9 -11 -3 -11 0 0 13 7 8 15 13 18 10 3 -3 12 4 20 16 14 21 14 21 43
-7 15 -15 26 -31 23 -36z m326 32 c-12 -16 -24 -30 -26 -30 -3 0 4 14 16 30
12 17 24 30 26 30 3 0 -4 -13 -16 -30z m351 -59 c-95 -190 -222 -354 -390
-501 -90 -79 -328 -229 -289 -183 7 8 35 25 63 37 27 13 56 31 64 40 8 10 31
26 50 36 47 24 87 58 186 155 81 80 171 184 169 194 -1 3 7 17 18 31 44 58 93
138 126 207 19 41 37 72 39 69 2 -2 -14 -41 -36 -85z m-1661 75 c0 -3 -4 -8
-10 -11 -5 -3 -10 -1 -10 4 0 6 5 11 10 11 6 0 10 -2 10 -4z m1 -43 c-12 -20
-14 -14 -5 12 4 9 9 14 11 11 3 -2 0 -13 -6 -23z m1336 -40 c-25 -32 -67 -78
-93 -103 l-48 -45 50 55 c27 30 67 79 88 108 21 29 41 51 43 48 3 -3 -15 -31
-40 -63z m-1281 46 c10 -16 -23 -46 -36 -33 -6 6 -8 18 -4 27 7 19 29 22 40 6z
m512 -12 c17 -11 15 -26 -4 -34 -16 -6 -34 11 -34 34 0 12 17 12 38 0z m33 -4
c13 -16 12 -17 -3 -4 -10 7 -18 15 -18 17 0 8 8 3 21 -13z m-498 0 c3 -5 0
-17 -4 -28 -9 -18 -9 -18 -5 3 5 26 -9 29 -23 5 -12 -20 -14 -13 -5 11 6 17
30 22 37 9z m393 -47 c-2 -6 -5 -3 -5 7 -1 9 -5 17 -11 17 -5 0 -11 -8 -11
-17 -1 -17 -2 -17 -6 -1 -2 10 2 24 9 32 11 12 14 11 21 -7 4 -11 6 -25 3 -31z
m1026 -23 c-57 -83 -180 -212 -267 -279 -78 -59 -91 -72 -52 -54 21 11 21 10
-2 -10 -18 -16 -22 -23 -12 -29 12 -8 -26 -43 -76 -70 -38 -20 -26 -4 23 29
64 45 48 48 -24 5 -62 -36 -101 -49 -47 -16 17 10 50 31 73 46 24 14 41 29 39
32 -3 3 -32 -11 -64 -30 -91 -54 -143 -79 -161 -74 -11 2 -7 6 13 12 114 30
432 269 418 314 -4 13 -3 13 5 2 7 -10 24 4 71 60 59 72 78 106 44 78 -14 -12
-14 -11 1 13 10 15 22 26 26 23 5 -3 12 0 15 6 4 5 9 8 12 5 3 -2 -13 -31 -35
-63z m68 57 c0 -5 -4 -10 -10 -10 -5 0 -10 5 -10 10 0 6 5 10 10 10 6 0 10 -4
10 -10z m-2873 -22 c-3 -8 -6 -5 -6 6 -1 11 2 17 5 13 3 -3 4 -12 1 -19z
m1675 -7 c2 -17 1 -28 -4 -25 -8 5 -12 54 -4 54 2 0 6 -13 8 -29z m-171 10
c-8 -5 -11 -16 -8 -26 4 -9 3 -14 -3 -10 -17 11 -11 45 8 45 14 0 14 -2 3 -9z
m37 -11 c-7 -10 -14 -18 -15 -16 -6 6 9 36 18 36 5 0 4 -9 -3 -20z m57 -9 c-3
-3 -10 1 -15 9 -8 12 -10 9 -11 -10 0 -14 -3 -19 -6 -12 -3 7 -2 20 1 28 5 13
9 14 21 4 9 -7 13 -15 10 -19z m53 1 c2 -12 -1 -22 -7 -22 -6 0 -10 3 -10 8 3
20 -2 32 -13 26 -7 -4 -8 -3 -4 5 11 18 31 8 34 -17z m78 16 c5 -8 2 -9 -9 -5
-11 4 -17 1 -17 -8 0 -9 6 -12 18 -9 14 5 14 4 2 -4 -18 -14 -30 -6 -30 19 0
21 24 26 36 7z m804 9 c0 -2 -10 -12 -22 -23 l-23 -19 19 23 c18 21 26 27 26
19z m-547 -102 c20 -41 20 -45 7 -45 -10 0 -40 52 -40 70 0 21 17 9 33 -25z
m-1898 15 c3 -5 1 -10 -4 -10 -6 0 -11 5 -11 10 0 6 2 10 4 10 3 0 8 -4 11
-10z m-35 -30 c0 -5 -4 -10 -10 -10 -5 0 -10 5 -10 10 0 6 5 10 10 10 6 0 10
-4 10 -10z m700 0 c0 -5 -2 -10 -4 -10 -3 0 -8 5 -11 10 -3 6 -1 10 4 10 6 0
11 -4 11 -10z m990 0 c0 -5 -5 -10 -11 -10 -5 0 -7 5 -4 10 3 6 8 10 11 10 2
0 4 -4 4 -10z m34 -7 c14 -48 18 -93 8 -93 -6 0 -14 17 -17 38 -3 20 -8 45
-10 55 -2 9 1 17 5 17 5 0 11 -8 14 -17z m181 -31 c-6 -15 -8 -14 -16 6 -11
29 0 52 13 28 5 -10 7 -25 3 -34z m-239 -30 c4 -26 3 -42 -4 -42 -14 0 -22 26
-22 73 1 51 16 32 26 -31z m-168 46 c9 -9 12 -9 12 3 1 10 5 9 15 -5 14 -18
15 -18 15 -2 0 9 5 14 10 11 6 -3 10 -26 10 -51 0 -50 -20 -61 -21 -11 l-1 32
-9 -32 c-13 -44 -29 -42 -31 5 l-1 37 -4 -37 c-3 -26 -9 -38 -20 -38 -10 0
-13 6 -9 16 3 9 6 31 6 50 0 36 8 42 28 22z m109 0 c10 24 23 0 23 -44 0 -53
-19 -59 -22 -6 l-1 37 -4 -37 c-6 -56 -33 -51 -33 5 0 48 9 64 23 45 7 -10 10
-10 14 0z m95 -38 c2 -28 0 -40 -9 -40 -7 0 -13 11 -13 24 0 13 -3 31 -6 40
-4 10 -1 16 9 16 10 0 16 -13 19 -40z m998 29 c0 -6 -54 -64 -120 -130 -110
-110 -144 -139 -123 -106 4 6 8 15 8 19 0 4 14 17 31 30 54 40 164 142 164
152 0 9 29 46 37 46 1 0 3 -5 3 -11z m-2653 -18 c-5 -20 38 -52 60 -44 14 5
47 -53 38 -67 -3 -6 2 -10 11 -10 14 0 15 -3 7 -11 -7 -7 -19 -8 -30 -4 -10 5
-24 7 -30 6 -7 -1 -13 7 -13 17 0 11 -7 25 -15 32 -8 7 -15 19 -15 28 0 8 -3
12 -7 9 -3 -4 -13 2 -20 13 -12 17 -12 24 -3 35 17 20 23 19 17 -4z m2347 -9
c-70 -61 -96 -79 -88 -60 5 13 103 88 114 88 3 0 -9 -13 -26 -28z m180 16
c-16 -25 -40 -50 -74 -76 -24 -18 -18 -9 20 31 56 57 67 67 54 45z m-2313 -75
c13 -16 12 -17 -3 -4 -10 7 -18 15 -18 17 0 8 8 3 21 -13z m2103 -24 c-40 -44
-223 -156 -323 -197 -107 -44 -152 -53 -58 -12 155 69 203 93 285 149 50 33
93 65 97 71 3 5 9 10 12 10 3 0 -2 -9 -13 -21z m-2159 1 c3 -5 1 -10 -4 -10
-6 0 -11 5 -11 10 0 6 2 10 4 10 3 0 8 -4 11 -10z m2075 -4 c-16 -15 -139 -84
-129 -73 7 8 132 86 139 87 2 0 -2 -6 -10 -14z m-2020 -72 c0 -4 -8 0 -18 9
-10 10 -21 14 -25 11 -3 -3 -3 3 0 15 5 20 6 20 24 -3 11 -13 19 -28 19 -32z
m2133 25 c5 -3 1 -9 -8 -12 -9 -4 -13 -3 -10 3 9 14 -2 12 -33 -6 -26 -16 -26
-15 3 10 16 14 32 22 35 18 3 -4 9 -10 13 -13z m-2102 -56 c13 -16 12 -17 -3
-4 -10 7 -18 15 -18 17 0 8 8 3 21 -13z m2004 1 c-25 -20 -75 -46 -75 -40 0 5
82 56 90 56 3 -1 -4 -8 -15 -16z m-85 -49 c0 -6 -56 -35 -67 -35 -4 1 8 9 27
20 39 22 40 22 40 15z m94 -90 c-4 -8 -12 -15 -20 -15 -7 0 -17 -7 -22 -16 -5
-9 -11 -14 -13 -12 -6 4 -103 -45 -107 -55 -4 -9 -70 -37 -86 -37 -6 1 1 8 17
16 15 8 27 19 27 24 0 6 5 10 10 10 13 0 61 24 140 68 65 37 61 36 54 17z
m-34 -71 c-55 -38 -140 -78 -148 -70 -2 3 20 16 49 29 30 14 69 37 88 51 19
14 41 26 49 26 8 0 -9 -16 -38 -36z m-1185 -55 c15 -14 -7 -10 -35 7 l-25 15
25 -7 c14 -3 29 -10 35 -15z m940 -19 c-27 -12 -43 -12 -25 0 8 5 22 9 30 9
10 0 8 -3 -5 -9z m-795 -30 c0 -5 15 -10 33 -11 17 0 50 -4 72 -9 32 -8 27 -8
-30 -4 -42 3 -76 11 -85 19 -10 10 -11 15 -2 15 7 0 12 -4 12 -10z m720 -34
c0 -3 -4 -8 -10 -11 -5 -3 -10 -1 -10 4 0 6 5 11 10 11 6 0 10 -2 10 -4z"/>
<path d="M1325 3281 c-87 -47 -145 -84 -141 -88 3 -3 26 7 51 23 26 16 58 36
73 44 56 32 67 39 57 39 -5 -1 -23 -9 -40 -18z"/>
<path d="M1287 3095 c3 -8 9 -12 14 -9 12 7 11 11 -5 17 -10 4 -13 1 -9 -8z"/>
<path d="M965 2820 c-3 -5 -1 -10 4 -10 6 0 11 5 11 10 0 6 -2 10 -4 10 -3 0
-8 -4 -11 -10z"/>
<path d="M2660 2615 c-20 -24 -6 -28 15 -5 10 11 13 20 8 20 -6 0 -16 -7 -23
-15z"/>
<path d="M1630 2320 c-18 -12 -2 -12 25 0 13 6 15 9 5 9 -8 0 -22 -4 -30 -9z"/>
<path d="M1530 2281 c0 -18 18 -21 30 -6 10 13 9 15 -9 15 -11 0 -21 -4 -21
-9z"/>
<path d="M2165 2590 c-3 -5 -1 -10 4 -10 6 0 11 5 11 10 0 6 -2 10 -4 10 -3 0
-8 -4 -11 -10z"/>
<path d="M2409 1319 c0 -2 -2 -23 -3 -46 -3 -38 -1 -41 10 -25 13 16 14 16 7
-3 -8 -25 0 -18 17 14 10 19 10 22 -1 16 -9 -6 -11 -3 -6 8 3 8 -1 21 -9 27
-8 7 -14 11 -15 9z"/>
<path d="M1871 2304 c0 -11 3 -14 6 -6 3 7 2 16 -1 19 -3 4 -6 -2 -5 -13z"/>
<path d="M2094 2305 c-7 -18 3 -35 22 -35 8 0 14 10 14 25 0 27 -27 35 -36 10z"/>
<path d="M1870 1748 c1 -29 1 -70 1 -91 l-1 -38 -165 2 c-91 1 -168 -1 -171
-4 -3 -3 19 -17 50 -32 126 -62 313 -50 556 33 l85 30 -85 -4 c-57 -2 -109
-11 -157 -28 -141 -48 -279 -56 -385 -21 -24 8 -30 12 -13 9 79 -15 176 -20
235 -13 60 7 200 45 200 53 0 3 -20 4 -44 4 -46 -1 -102 25 -91 42 3 5 28 8
56 7 40 -2 54 2 65 17 12 17 14 18 14 3 0 -12 8 -17 30 -17 29 0 30 1 30 50 0
49 -1 50 -30 50 -27 0 -30 -3 -30 -30 l0 -30 -20 20 c-11 11 -31 20 -45 20
-14 0 -25 5 -25 10 0 6 -14 10 -31 10 -30 0 -30 0 -29 -52z m89 -12 c9 -11 9
-16 0 -22 -8 -4 -9 -3 -5 4 4 7 1 12 -8 12 -9 0 -16 5 -16 10 0 14 16 12 29
-4z"/>
<path d="M2118 1773 c-16 -4 -35 -59 -24 -70 3 -3 31 -7 62 -8 47 -1 58 1 61
16 5 16 6 16 25 -3 24 -24 81 -22 86 4 2 12 -5 18 -25 21 l-28 4 28 2 c35 1
36 28 0 37 -17 5 -37 1 -56 -9 -25 -15 -30 -15 -43 -2 -15 14 -50 18 -86 8z
m7 -43 c-3 -5 -11 -10 -16 -10 -6 0 -7 5 -4 10 3 6 11 10 16 10 6 0 7 -4 4
-10z"/>
<path d="M3237 1423 c-4 -3 -7 -11 -7 -17 0 -6 5 -5 12 2 6 6 9 14 7 17 -3 3
-9 2 -12 -2z"/>
<path d="M1429 1363 c-12 -16 -12 -17 2 -6 9 7 19 10 22 6 4 -3 7 -1 7 5 0 17
-16 15 -31 -5z"/>
<path d="M1456 1341 c-15 -16 -15 -19 -2 -24 10 -4 20 1 26 13 14 26 -3 34
-24 11z"/>
<path d="M1490 1321 c-6 -13 -6 -22 -1 -26 9 -5 31 24 31 39 0 14 -20 4 -30
-13z"/>
<path d="M1534 1322 c4 -7 2 -20 -5 -28 -6 -8 -9 -17 -6 -20 3 -3 11 4 17 16
9 17 9 25 -1 34 -9 8 -10 8 -5 -2z"/>
<path d="M2737 1613 c-3 -5 8 -18 26 -28 18 -10 29 -14 25 -10 -4 4 -1 13 8
19 14 10 13 12 -3 12 -10 1 -25 4 -34 8 -10 4 -19 3 -22 -1z m38 -21 c-3 -3
-11 0 -18 7 -9 10 -8 11 6 5 10 -3 15 -9 12 -12z"/>
<path d="M2733 1557 c0 -7 9 -13 19 -13 10 0 18 1 18 3 0 1 -8 7 -18 12 -13 7
-19 6 -19 -2z"/>
<path d="M2665 1500 c-7 -11 29 -40 41 -32 18 13 9 35 -14 37 -13 1 -25 -1
-27 -5z m26 -17 c13 -16 12 -17 -3 -4 -17 13 -22 21 -14 21 2 0 10 -8 17 -17z"/>
<path d="M2655 1450 c10 -11 20 -20 23 -20 3 0 -3 9 -13 20 -10 11 -20 20 -23
20 -3 0 3 -9 13 -20z"/>
<path d="M1455 1519 c-4 -6 -5 -13 -2 -16 7 -7 27 6 27 18 0 12 -17 12 -25 -2z"/>
<path d="M2959 953 c-13 -16 -12 -17 4 -4 16 13 21 21 13 21 -2 0 -10 -8 -17
-17z"/>
<path d="M2630 1425 c13 -14 26 -25 28 -25 3 0 -5 11 -18 25 -13 14 -26 25
-28 25 -3 0 5 -11 18 -25z"/>
<path d="M2610 1395 c13 -14 26 -25 28 -25 3 0 -5 11 -18 25 -13 14 -26 25
-28 25 -3 0 5 -11 18 -25z"/>
<path d="M2556 1378 c4 -5 9 -7 12 -4 3 3 15 -2 26 -11 21 -18 21 -18 3 3 -16
20 -52 30 -41 12z"/>
<path d="M2501 1342 c-7 -14 -6 -19 4 -19 17 0 28 24 15 32 -5 3 -13 -3 -19
-13z"/>
<path d="M1685 1369 c-4 -6 -5 -13 -2 -16 7 -7 27 6 27 18 0 12 -17 12 -25 -2z"/>
<path d="M2205 1350 c3 -5 10 -10 16 -10 5 0 9 5 9 10 0 6 -7 10 -16 10 -8 0
-12 -4 -9 -10z"/>
<path d="M1941 3786 c-9 -11 3 -13 71 -12 l83 0 -50 14 c-35 10 -50 11 -53 3
-2 -7 -9 -8 -22 -1 -13 7 -21 6 -29 -4z"/>
<path d="M2473 3773 c9 -2 23 -2 30 0 6 3 -1 5 -18 5 -16 0 -22 -2 -12 -5z"/>
<path d="M1418 3753 c7 -3 16 -2 19 1 4 3 -2 6 -13 5 -11 0 -14 -3 -6 -6z"/>
<path d="M1365 3740 c-13 -6 -15 -9 -5 -9 8 0 22 4 30 9 18 12 2 12 -25 0z"/>
<path d="M1910 3740 c-18 -12 69 -12 115 0 23 6 16 8 -35 9 -36 0 -72 -4 -80
-9z"/>
<path d="M2080 3740 c0 -5 7 -10 16 -10 8 0 12 5 9 10 -3 6 -10 10 -16 10 -5
0 -9 -4 -9 -10z"/>
<path d="M2135 3740 c-16 -6 -11 -9 23 -15 24 -4 46 -4 49 -1 4 3 -5 6 -19 6
-15 0 -28 4 -30 9 -1 4 -12 5 -23 1z"/>
<path d="M2178 3743 c7 -3 16 -2 19 1 4 3 -2 6 -13 5 -11 0 -14 -3 -6 -6z"/>
<path d="M1268 3705 c-28 -13 -57 -21 -70 -18 -15 5 -19 3 -13 -6 5 -10 2 -11
-13 -7 -13 5 -39 -3 -71 -20 -42 -21 -54 -24 -66 -14 -12 10 -13 16 -3 28 8
10 -3 7 -27 -8 -59 -35 -125 -80 -125 -86 0 -2 24 12 54 32 32 21 60 33 67 28
8 -5 10 -3 4 6 -5 8 -3 11 6 8 8 -3 13 -11 11 -17 -1 -7 2 -10 7 -7 5 3 8 -2
7 -11 -2 -9 -9 -19 -17 -21 -11 -3 -12 -2 -1 6 11 7 11 10 -2 15 -9 4 -16 2
-16 -3 0 -6 -8 -10 -18 -10 -11 0 -27 -9 -37 -20 -23 -25 -80 -62 -92 -58 -13
5 -73 -54 -66 -65 3 -6 1 -7 -5 -3 -13 8 -154 -122 -147 -134 6 -9 -13 -25
-30 -25 -16 0 -156 -179 -151 -192 3 -7 0 -12 -6 -10 -13 2 -69 -88 -65 -106
1 -7 -4 -11 -11 -9 -8 1 -12 -5 -11 -15 2 -10 -7 -39 -19 -65 -12 -26 -22 -52
-22 -57 0 -6 -4 -11 -10 -11 -5 0 -12 -16 -16 -35 -3 -19 -10 -32 -15 -29 -8
5 -10 -2 -14 -46 0 -9 -6 -29 -13 -45 -32 -82 -68 -241 -87 -390 -27 -214 -14
-494 31 -670 8 -33 20 -80 26 -105 6 -25 13 -39 15 -32 3 7 -4 43 -15 80 -49
162 -74 474 -53 659 40 351 182 686 402 949 108 130 289 296 392 362 25 16 43
33 39 37 -4 5 -2 5 5 1 6 -3 36 9 66 28 30 19 101 56 158 81 57 26 106 49 108
51 13 12 -31 0 -71 -21z m-138 -55 c0 -5 -5 -10 -11 -10 -5 0 -7 5 -4 10 3 6
8 10 11 10 2 0 4 -4 4 -10z m-163 -67 c-4 -3 -1 -13 6 -22 11 -14 10 -14 -5
-2 -16 12 -16 31 -1 31 4 0 3 -3 0 -7z"/>
<path d="M1070 3695 c-14 -8 -20 -14 -14 -15 5 0 19 7 30 15 24 18 16 19 -16
0z"/>
<path d="M2416 3698 c5 -8 2 -9 -9 -5 -9 3 -19 1 -23 -4 -4 -7 3 -9 17 -7 23
3 40 28 19 28 -6 0 -8 -5 -4 -12z"/>
<path d="M1310 3680 c-8 -5 -10 -10 -5 -10 6 0 17 5 25 10 8 5 11 10 5 10 -5
0 -17 -5 -25 -10z"/>
<path d="M880 3549 c-17 -13 -18 -17 -5 -10 33 17 51 31 40 31 -5 0 -21 -10
-35 -21z"/>
<path d="M723 3456 c-148 -128 -284 -286 -366 -426 -87 -149 -106 -186 -102
-198 3 -7 1 -11 -4 -8 -12 8 -61 -113 -104 -254 -97 -321 -107 -682 -27 -1025
17 -73 38 -139 39 -124 1 3 -10 51 -24 106 -43 176 -58 327 -51 528 3 99 10
194 16 210 l10 30 -5 -35 c-11 -85 -15 -292 -7 -365 7 -71 8 -59 10 106 2 194
17 335 51 479 12 47 21 93 21 103 0 11 9 32 21 48 11 16 17 34 14 39 -4 6 -3
16 2 23 5 7 15 31 23 55 7 23 17 42 22 42 4 0 8 9 8 21 0 13 4 18 12 13 6 -4
8 -3 4 4 -8 13 14 63 25 56 5 -3 6 3 2 12 -5 13 -3 15 7 9 9 -5 11 -4 6 3 -6
10 22 75 47 107 4 5 33 48 64 95 85 128 204 260 344 380 38 33 65 60 61 60 -5
0 -59 -42 -119 -94z"/>
<path d="M529 3333 c-13 -16 -12 -17 4 -4 9 7 17 15 17 17 0 8 -8 3 -21 -13z"/>
<path d="M504 3268 l-19 -23 23 19 c21 18 27 26 19 26 -2 0 -12 -10 -23 -22z"/>
<path d="M3496 2767 c3 -10 9 -15 12 -12 3 3 0 11 -7 18 -10 9 -11 8 -5 -6z"/>
<path d="M41 2354 c0 -11 3 -14 6 -6 3 7 2 16 -1 19 -3 4 -6 -2 -5 -13z"/>
<path d="M142 2300 c0 -14 2 -19 5 -12 2 6 2 18 0 25 -3 6 -5 1 -5 -13z"/>
<path d="M52 2230 c0 -14 2 -19 5 -12 2 6 2 18 0 25 -3 6 -5 1 -5 -13z"/>
<path d="M132 2230 c0 -14 2 -19 5 -12 2 6 2 18 0 25 -3 6 -5 1 -5 -13z"/>
<path d="M42 2095 c0 -16 2 -22 5 -12 2 9 2 23 0 30 -3 6 -5 -1 -5 -18z"/>
<path d="M13 2055 c0 -27 2 -38 4 -22 2 15 2 37 0 50 -2 12 -4 0 -4 -28z"/>
<path d="M41 2024 c0 -11 3 -14 6 -6 3 7 2 16 -1 19 -3 4 -6 -2 -5 -13z"/>
<path d="M3732 1925 c0 -16 2 -22 5 -12 2 9 2 23 0 30 -3 6 -5 -1 -5 -18z"/>
<path d="M3752 1908 c-1 -15 -8 -31 -16 -35 -18 -10 -33 -123 -17 -123 6 0 11
9 11 20 0 11 5 20 11 20 7 0 9 11 6 29 -4 17 -2 31 4 33 6 2 9 21 6 43 -2 25
-4 30 -5 13z"/>
<path d="M3530 1738 c0 -7 -3 -23 -6 -35 -4 -13 -2 -23 4 -23 12 0 22 59 10
66 -4 3 -8 -1 -8 -8z"/>
<path d="M3701 1714 c0 -11 3 -14 6 -6 3 7 2 16 -1 19 -3 4 -6 -2 -5 -13z"/>
<path d="M3696 1675 c-3 -9 -6 -24 -5 -33 0 -9 5 -4 10 12 9 32 6 48 -5 21z"/>
<path d="M3505 1634 c-4 -22 -16 -70 -26 -108 -10 -38 -17 -72 -15 -74 3 -2
10 16 16 39 6 24 20 71 31 103 13 39 17 62 10 69 -6 6 -12 -4 -16 -29z"/>
<path d="M3607 1590 c-10 -34 -16 -65 -13 -67 7 -7 38 105 34 119 -2 6 -12
-17 -21 -52z"/>
<path d="M3641 1604 c0 -11 3 -14 6 -6 3 7 2 16 -1 19 -3 4 -6 -2 -5 -13z"/>
<path d="M3666 1553 c-6 -14 -5 -15 5 -6 7 7 10 15 7 18 -3 3 -9 -2 -12 -12z"/>
<path d="M86 1515 c13 -54 24 -73 18 -30 -4 22 -11 45 -16 50 -6 6 -7 -1 -2
-20z"/>
<path d="M3621 1533 c-1 -6 -4 -20 -7 -30 -5 -17 -5 -17 6 0 6 10 9 23 6 30
-3 9 -5 9 -5 0z"/>
<path d="M3581 1494 c0 -11 3 -14 6 -6 3 7 2 16 -1 19 -3 4 -6 -2 -5 -13z"/>
<path d="M255 1427 c8 -39 46 -139 51 -134 3 2 -9 40 -26 83 -17 43 -28 66
-25 51z"/>
<path d="M115 1416 c17 -86 131 -333 212 -459 143 -225 396 -472 621 -610 176
-107 492 -234 622 -251 l45 -5 -40 10 c-399 105 -677 255 -934 504 -221 214
-361 417 -459 664 -65 165 -75 187 -67 147z"/>
<path d="M3577 1404 c-10 -19 -12 -32 -7 -29 12 7 33 55 27 61 -2 2 -11 -12
-20 -32z"/>
<path d="M3366 1358 c3 -5 10 -6 15 -3 13 9 11 12 -6 12 -8 0 -12 -4 -9 -9z"/>
<path d="M310 1351 c0 -6 4 -13 10 -16 6 -3 7 1 4 9 -7 18 -14 21 -14 7z"/>
<path d="M3561 1344 c0 -11 3 -14 6 -6 3 7 2 16 -1 19 -3 4 -6 -2 -5 -13z"/>
<path d="M3395 1339 c-4 -6 -5 -12 -2 -15 2 -3 7 2 10 11 7 17 1 20 -8 4z"/>
<path d="M3332 1305 c-17 -37 -14 -45 4 -12 9 16 14 31 11 33 -2 2 -9 -7 -15
-21z"/>
<path d="M3486 1284 c-24 -51 -12 -55 14 -5 11 23 17 41 12 41 -5 0 -16 -16
-26 -36z"/>
<path d="M201 1290 c0 -8 9 -33 20 -55 10 -22 16 -29 13 -16 -10 37 -33 88
-33 71z"/>
<path d="M3364 1272 c-6 -4 -19 -23 -29 -42 -10 -19 -27 -47 -38 -62 -11 -15
-18 -30 -15 -33 5 -5 61 74 87 123 13 24 12 26 -5 14z"/>
<path d="M321 1265 c1 -19 18 -51 18 -35 0 8 -4 22 -9 30 -5 8 -9 11 -9 5z"/>
<path d="M3410 1148 c-52 -76 -177 -235 -189 -240 -10 -3 -190 -167 -233 -211
-28 -29 -93 -76 -205 -150 -35 -22 -61 -42 -58 -45 5 -5 116 57 130 73 6 7 35
27 65 45 149 89 333 274 459 463 29 43 55 76 58 73 3 -3 -4 -17 -16 -32 -11
-15 -21 -33 -21 -40 0 -27 16 -14 38 30 15 32 18 46 9 49 -9 3 -8 8 2 21 8 9
11 19 9 22 -3 3 -25 -23 -48 -58z"/>
<path d="M3477 1183 c-4 -3 -7 -13 -7 -22 1 -13 3 -13 11 2 11 19 8 33 -4 20z"/>
<path d="M3240 1075 c-7 -9 -8 -15 -2 -15 5 0 12 7 16 15 3 8 4 15 2 15 -2 0
-9 -7 -16 -15z"/>
<path d="M3361 1017 c-11 -18 -31 -43 -45 -56 -14 -14 -26 -29 -26 -35 0 -6 7
-3 14 7 7 9 18 17 25 17 6 0 11 6 11 14 0 8 14 28 30 46 32 34 35 40 21 40 -5
0 -18 -15 -30 -33z"/>
<path d="M3180 1025 c0 -8 2 -15 4 -15 2 0 6 7 10 15 3 8 1 15 -4 15 -6 0 -10
-7 -10 -15z"/>
<path d="M3150 982 c0 -7 -5 -12 -11 -12 -6 0 -39 -28 -73 -62 -78 -79 -106
-104 -178 -156 -32 -24 -58 -45 -58 -48 0 -8 17 4 95 62 86 66 240 212 231
221 -3 3 -6 1 -6 -5z"/>
<path d="M600 930 c0 -5 5 -10 10 -10 6 0 10 -5 10 -11 0 -17 28 -40 35 -29 3
5 2 10 -3 10 -5 0 -15 11 -22 25 -13 25 -30 33 -30 15z"/>
<path d="M747 906 c-9 -22 13 -66 31 -66 9 0 12 6 7 18 -4 9 -8 23 -9 30 -4
23 -23 35 -29 18z"/>
<path d="M670 856 c0 -3 14 -20 31 -38 l32 -33 -22 32 c-21 31 -41 50 -41 39z"/>
<path d="M840 803 c0 -12 28 -38 34 -32 2 2 -5 13 -15 23 -11 11 -19 15 -19 9z"/>
<path d="M2939 680 c-13 -10 -19 -19 -13 -20 6 0 19 9 29 20 23 26 14 26 -16
0z"/>
<path d="M800 620 c50 -48 80 -73 159 -129 69 -49 221 -137 221 -128 0 3 -30
22 -67 43 -110 61 -194 120 -318 224 -21 17 -19 14 5 -10z"/>
<path d="M2647 474 c-34 -18 -27 -38 8 -22 13 6 22 14 20 19 -3 4 1 10 7 12 7
3 9 6 3 6 -5 0 -23 -7 -38 -15z"/>
<path d="M2517 417 c-32 -11 -56 -21 -54 -23 5 -6 111 26 122 37 12 12 1 10
-68 -14z"/>
<path d="M3119 393 c-13 -16 -12 -17 4 -4 16 13 21 21 13 21 -2 0 -10 -8 -17
-17z"/>
<path d="M3074 364 c-18 -14 -18 -15 4 -4 12 6 22 13 22 15 0 8 -5 6 -26 -11z"/>
<path d="M1211 346 c2 -2 15 -9 29 -15 24 -11 24 -11 6 3 -16 13 -49 24 -35
12z"/>
<path d="M2770 335 c-14 -8 -20 -14 -15 -14 6 0 21 6 35 14 14 8 21 14 15 14
-5 0 -21 -6 -35 -14z"/>
<path d="M2988 314 c-38 -20 -36 -28 2 -9 17 9 30 18 30 20 0 7 -1 6 -32 -11z"/>
<path d="M1310 300 c8 -5 20 -10 25 -10 6 0 3 5 -5 10 -8 5 -19 10 -25 10 -5
0 -3 -5 5 -10z"/>
<path d="M2640 280 c-8 -5 -10 -10 -5 -10 6 0 17 5 25 10 8 5 11 10 5 10 -5 0
-17 -5 -25 -10z"/>
<path d="M2538 243 c7 -3 16 -2 19 1 4 3 -2 6 -13 5 -11 0 -14 -3 -6 -6z"/>
<path d="M2480 230 c-21 -7 -21 -8 -5 -9 11 0 27 4 35 9 18 11 5 11 -30 0z"/>
<path d="M1568 213 c7 -3 16 -2 19 1 4 3 -2 6 -13 5 -11 0 -14 -3 -6 -6z"/>
<path d="M2400 210 c-20 -6 -21 -8 -5 -8 11 0 29 3 40 8 25 11 -1 11 -35 0z"/>
<path d="M2780 210 c-8 -5 -10 -10 -5 -10 6 0 17 5 25 10 8 5 11 10 5 10 -5 0
-17 -5 -25 -10z"/>
<path d="M1608 203 c7 -3 16 -2 19 1 4 3 -2 6 -13 5 -11 0 -14 -3 -6 -6z"/>
<path d="M1658 193 c6 -2 18 -2 25 0 6 3 1 5 -13 5 -14 0 -19 -2 -12 -5z"/>
<path d="M2348 193 c7 -3 16 -2 19 1 4 3 -2 6 -13 5 -11 0 -14 -3 -6 -6z"/>
<path d="M2715 185 c-16 -8 -23 -14 -15 -14 8 0 26 6 40 14 32 18 15 18 -25 0z"/>
<path d="M1708 183 c6 -2 18 -2 25 0 6 3 1 5 -13 5 -14 0 -19 -2 -12 -5z"/>
<path d="M2225 180 c-34 -6 -36 -7 -10 -8 17 0 48 3 70 7 33 7 35 9 10 8 -16
0 -48 -3 -70 -7z"/>
<path d="M1778 173 c12 -2 32 -2 45 0 12 2 2 4 -23 4 -25 0 -35 -2 -22 -4z"/>
<path d="M1933 163 c42 -2 112 -2 155 0 42 1 7 3 -78 3 -85 0 -120 -2 -77 -3z"/>
<path d="M2590 140 c-8 -5 -10 -10 -5 -10 6 0 17 5 25 10 8 5 11 10 5 10 -5 0
-17 -5 -25 -10z"/>
<path d="M1628 83 c6 -2 18 -2 25 0 6 3 1 5 -13 5 -14 0 -19 -2 -12 -5z"/>
<path d="M1683 73 c9 -2 23 -2 30 0 6 3 -1 5 -18 5 -16 0 -22 -2 -12 -5z"/>
<path d="M1753 63 c9 -2 25 -2 35 0 9 3 1 5 -18 5 -19 0 -27 -2 -17 -5z"/>
<path d="M1838 53 c12 -2 32 -2 45 0 12 2 2 4 -23 4 -25 0 -35 -2 -22 -4z"/>
</g>
</svg>
